<svg width="467" height="116" viewBox="0 0 467 116" fill="none" xmlns="http://www.w3.org/2000/svg">
<mask id="path-1-outside-1_12_19" maskUnits="userSpaceOnUse" x="10" y="24" width="451" height="70" fill="black">
<rect fill="white" x="10" y="24" width="451" height="70"/>
<path d="M14.9016 86V30H27.8616L48.3416 64.32V30H60.3416V86H47.3816L26.9016 51.68V86H14.9016ZM69.9797 56H95.5797V68H69.9797V56ZM152.094 88.08L146.094 82.16C143.987 83.6 141.667 84.72 139.134 85.52C136.627 86.32 133.987 86.72 131.214 86.72C127.427 86.72 123.867 85.9733 120.534 84.48C117.201 82.96 114.267 80.88 111.734 78.24C109.201 75.5733 107.214 72.4933 105.774 69C104.334 65.48 103.614 61.7067 103.614 57.68C103.614 53.68 104.334 49.9333 105.774 46.44C107.214 42.92 109.201 39.8267 111.734 37.16C114.267 34.4933 117.201 32.4133 120.534 30.92C123.867 29.4 127.427 28.64 131.214 28.64C135.027 28.64 138.601 29.4 141.934 30.92C145.267 32.4133 148.201 34.4933 150.734 37.16C153.267 39.8267 155.241 42.92 156.654 46.44C158.094 49.9333 158.814 53.68 158.814 57.68C158.814 60.5867 158.414 63.3733 157.614 66.04C156.841 68.68 155.774 71.1467 154.414 73.44L160.574 79.6L152.094 88.08ZM131.214 74.72C132.307 74.72 133.361 74.6 134.374 74.36C135.414 74.12 136.414 73.7867 137.374 73.36L134.014 70L142.494 61.52L145.454 64.48C145.907 63.44 146.241 62.3467 146.454 61.2C146.694 60.0533 146.814 58.88 146.814 57.68C146.814 55.3333 146.401 53.1333 145.574 51.08C144.774 49.0267 143.654 47.2267 142.214 45.68C140.774 44.1067 139.107 42.88 137.214 42C135.347 41.0933 133.347 40.64 131.214 40.64C129.081 40.64 127.067 41.0933 125.174 42C123.307 42.88 121.654 44.1067 120.214 45.68C118.774 47.2267 117.641 49.0267 116.814 51.08C116.014 53.1333 115.614 55.3333 115.614 57.68C115.614 60.0267 116.014 62.24 116.814 64.32C117.641 66.3733 118.774 68.1867 120.214 69.76C121.654 71.3067 123.307 72.52 125.174 73.4C127.067 74.28 129.081 74.72 131.214 74.72ZM165.333 71.48V46H177.333V68.12C177.333 69.3733 177.639 70.52 178.253 71.56C178.866 72.5733 179.679 73.3867 180.693 74C181.733 74.5867 182.866 74.88 184.093 74.88C185.346 74.88 186.479 74.5867 187.493 74C188.533 73.3867 189.346 72.5733 189.933 71.56C190.546 70.52 190.853 69.3733 190.853 68.12V46H202.853L202.893 86H190.893L190.853 83.4C189.519 84.5467 187.999 85.44 186.293 86.08C184.586 86.72 182.786 87.04 180.893 87.04C178.039 87.04 175.426 86.3467 173.053 84.96C170.706 83.5467 168.826 81.6667 167.413 79.32C166.026 76.9733 165.333 74.36 165.333 71.48ZM227.658 87.04C223.978 87.04 220.618 86.0933 217.578 84.2C214.564 82.3067 212.151 79.76 210.338 76.56C208.551 73.36 207.658 69.8267 207.658 65.96C207.658 63.0533 208.178 60.3333 209.218 57.8C210.258 55.24 211.684 53 213.498 51.08C215.338 49.1333 217.471 47.6133 219.898 46.52C222.324 45.4267 224.911 44.88 227.658 44.88C230.858 44.88 233.778 45.5867 236.418 47C239.084 48.3867 241.324 50.28 243.138 52.68C244.978 55.0533 246.284 57.7333 247.058 60.72C247.831 63.7067 247.911 66.7867 247.298 69.96H220.618C220.991 70.8933 221.484 71.7467 222.098 72.52C222.738 73.2667 223.511 73.8667 224.418 74.32C225.351 74.7733 226.431 75.0133 227.658 75.04C228.831 75.0667 229.911 74.8133 230.898 74.28C231.911 73.7467 232.791 73.0267 233.538 72.12L245.778 74.96C244.151 78.5067 241.724 81.4133 238.498 83.68C235.271 85.92 231.658 87.04 227.658 87.04ZM220.178 61.16H235.178C234.804 60.0133 234.244 59 233.498 58.12C232.751 57.24 231.871 56.5467 230.858 56.04C229.871 55.5333 228.804 55.28 227.658 55.28C226.538 55.28 225.471 55.5333 224.458 56.04C223.471 56.5467 222.604 57.24 221.858 58.12C221.138 59 220.578 60.0133 220.178 61.16ZM265.484 86.72C263.457 86.5333 261.511 86.0933 259.644 85.4C257.777 84.7067 256.111 83.76 254.644 82.56C253.177 81.36 252.017 79.8933 251.164 78.16L261.244 73.84C261.511 74.1333 261.884 74.5067 262.364 74.96C262.844 75.3867 263.444 75.7733 264.164 76.12C264.911 76.4667 265.804 76.64 266.844 76.64C267.537 76.64 268.204 76.5733 268.844 76.44C269.511 76.28 270.044 76.0133 270.444 75.64C270.871 75.2667 271.084 74.7467 271.084 74.08C271.084 73.3333 270.804 72.7733 270.244 72.4C269.711 72 269.057 71.72 268.284 71.56C267.511 71.3733 266.791 71.2267 266.124 71.12C263.751 70.7467 261.471 70 259.284 68.88C257.124 67.7333 255.351 66.2533 253.964 64.44C252.577 62.6 251.884 60.4533 251.884 58C251.884 55.2533 252.591 52.88 254.004 50.88C255.417 48.88 257.257 47.3467 259.524 46.28C261.817 45.1867 264.284 44.64 266.924 44.64C270.044 44.64 272.924 45.28 275.564 46.56C278.231 47.84 280.417 49.68 282.124 52.08L272.684 57.68C272.364 57.28 271.964 56.88 271.484 56.48C271.031 56.0533 270.497 55.6933 269.884 55.4C269.297 55.08 268.657 54.88 267.964 54.8C267.031 54.72 266.191 54.76 265.444 54.92C264.724 55.0533 264.151 55.3467 263.724 55.8C263.297 56.2267 263.084 56.8533 263.084 57.68C263.084 58.4533 263.457 59.0133 264.204 59.36C264.951 59.7067 265.791 59.96 266.724 60.12C267.657 60.28 268.417 60.4533 269.004 60.64C271.297 61.3867 273.457 62.36 275.484 63.56C277.511 64.76 279.137 66.2133 280.364 67.92C281.617 69.6267 282.204 71.6267 282.124 73.92C282.124 76.5867 281.324 78.9333 279.724 80.96C278.124 82.9867 276.057 84.52 273.524 85.56C270.991 86.6 268.311 86.9867 265.484 86.72ZM310.886 58H304.086V86H292.086V58H286.886V46H292.086V33.44H304.086V46H310.886V58ZM317.245 46H329.245V86H317.245V46ZM323.325 41.84C321.592 41.84 320.139 41.2667 318.965 40.12C317.792 38.9733 317.205 37.5467 317.205 35.84C317.205 34.16 317.792 32.7467 318.965 31.6C320.139 30.4267 321.579 29.84 323.285 29.84C324.965 29.84 326.379 30.4267 327.525 31.6C328.699 32.7467 329.285 34.16 329.285 35.84C329.285 37.5467 328.712 38.9733 327.565 40.12C326.445 41.2667 325.032 41.84 323.325 41.84ZM355.236 87.04C351.556 87.04 348.196 86.0933 345.156 84.2C342.143 82.3067 339.729 79.7733 337.916 76.6C336.129 73.4 335.236 69.8667 335.236 66C335.236 63.0667 335.756 60.3333 336.796 57.8C337.836 55.24 339.263 53 341.076 51.08C342.916 49.1333 345.049 47.6133 347.476 46.52C349.903 45.4267 352.489 44.88 355.236 44.88C358.916 44.88 362.263 45.8267 365.276 47.72C368.316 49.6133 370.729 52.16 372.516 55.36C374.329 58.56 375.236 62.1067 375.236 66C375.236 68.9067 374.716 71.6267 373.676 74.16C372.636 76.6933 371.196 78.9333 369.356 80.88C367.543 82.8 365.423 84.3067 362.996 85.4C360.596 86.4933 358.009 87.04 355.236 87.04ZM355.236 75.04C356.756 75.04 358.116 74.6267 359.316 73.8C360.543 72.9733 361.503 71.88 362.196 70.52C362.889 69.1333 363.236 67.6267 363.236 66C363.236 64.32 362.863 62.7867 362.116 61.4C361.396 60.0133 360.423 58.92 359.196 58.12C357.996 57.2933 356.676 56.88 355.236 56.88C353.743 56.88 352.383 57.3067 351.156 58.16C349.956 58.9867 348.996 60.0933 348.276 61.48C347.583 62.8667 347.236 64.3733 347.236 66C347.236 67.7067 347.596 69.24 348.316 70.6C349.063 71.96 350.036 73.04 351.236 73.84C352.463 74.64 353.796 75.04 355.236 75.04ZM418.79 60.44V86H406.79V63.8C406.79 62.5467 406.483 61.4133 405.87 60.4C405.256 59.36 404.443 58.5467 403.43 57.96C402.416 57.3467 401.283 57.04 400.03 57.04C398.776 57.04 397.63 57.3467 396.59 57.96C395.576 58.5467 394.763 59.36 394.15 60.4C393.563 61.4133 393.27 62.5467 393.27 63.8V86H381.27L381.23 46H393.23L393.27 48.52C394.603 47.3733 396.123 46.48 397.83 45.84C399.536 45.2 401.336 44.88 403.23 44.88C406.11 44.88 408.723 45.5867 411.07 47C413.416 48.3867 415.283 50.2533 416.67 52.6C418.083 54.9467 418.79 57.56 418.79 60.44ZM438.297 86.72C436.27 86.5333 434.323 86.0933 432.457 85.4C430.59 84.7067 428.923 83.76 427.457 82.56C425.99 81.36 424.83 79.8933 423.977 78.16L434.057 73.84C434.323 74.1333 434.697 74.5067 435.177 74.96C435.657 75.3867 436.257 75.7733 436.977 76.12C437.723 76.4667 438.617 76.64 439.657 76.64C440.35 76.64 441.017 76.5733 441.657 76.44C442.323 76.28 442.857 76.0133 443.257 75.64C443.683 75.2667 443.897 74.7467 443.897 74.08C443.897 73.3333 443.617 72.7733 443.057 72.4C442.523 72 441.87 71.72 441.097 71.56C440.323 71.3733 439.603 71.2267 438.937 71.12C436.563 70.7467 434.283 70 432.097 68.88C429.937 67.7333 428.163 66.2533 426.777 64.44C425.39 62.6 424.697 60.4533 424.697 58C424.697 55.2533 425.403 52.88 426.817 50.88C428.23 48.88 430.07 47.3467 432.337 46.28C434.63 45.1867 437.097 44.64 439.737 44.64C442.857 44.64 445.737 45.28 448.377 46.56C451.043 47.84 453.23 49.68 454.937 52.08L445.497 57.68C445.177 57.28 444.777 56.88 444.297 56.48C443.843 56.0533 443.31 55.6933 442.697 55.4C442.11 55.08 441.47 54.88 440.777 54.8C439.843 54.72 439.003 54.76 438.257 54.92C437.537 55.0533 436.963 55.3467 436.537 55.8C436.11 56.2267 435.897 56.8533 435.897 57.68C435.897 58.4533 436.27 59.0133 437.017 59.36C437.763 59.7067 438.603 59.96 439.537 60.12C440.47 60.28 441.23 60.4533 441.817 60.64C444.11 61.3867 446.27 62.36 448.297 63.56C450.323 64.76 451.95 66.2133 453.177 67.92C454.43 69.6267 455.017 71.6267 454.937 73.92C454.937 76.5867 454.137 78.9333 452.537 80.96C450.937 82.9867 448.87 84.52 446.337 85.56C443.803 86.6 441.123 86.9867 438.297 86.72Z"/>
</mask>
<path d="M14.9016 86H10.9016V90H14.9016V86ZM14.9016 30V26H10.9016V30H14.9016ZM27.8616 30L31.2965 27.9503L30.1327 26H27.8616V30ZM48.3416 64.32L44.9067 66.3697L52.3416 78.829V64.32H48.3416ZM48.3416 30V26H44.3416V30H48.3416ZM60.3416 30H64.3416V26H60.3416V30ZM60.3416 86V90H64.3416V86H60.3416ZM47.3816 86L43.9467 88.0497L45.1105 90H47.3816V86ZM26.9016 51.68L30.3365 49.6303L22.9016 37.171V51.68H26.9016ZM26.9016 86V90H30.9016V86H26.9016ZM18.9016 86V30H10.9016V86H18.9016ZM14.9016 34H27.8616V26H14.9016V34ZM24.4267 32.0497L44.9067 66.3697L51.7765 62.2703L31.2965 27.9503L24.4267 32.0497ZM52.3416 64.32V30H44.3416V64.32H52.3416ZM48.3416 34H60.3416V26H48.3416V34ZM56.3416 30V86H64.3416V30H56.3416ZM60.3416 82H47.3816V90H60.3416V82ZM50.8165 83.9503L30.3365 49.6303L23.4667 53.7297L43.9467 88.0497L50.8165 83.9503ZM22.9016 51.68V86H30.9016V51.68H22.9016ZM26.9016 82H14.9016V90H26.9016V82ZM69.9797 56V52H65.9797V56H69.9797ZM95.5797 56H99.5797V52H95.5797V56ZM95.5797 68V72H99.5797V68H95.5797ZM69.9797 68H65.9797V72H69.9797V68ZM69.9797 60H95.5797V52H69.9797V60ZM91.5797 56V68H99.5797V56H91.5797ZM95.5797 64H69.9797V72H95.5797V64ZM73.9797 68V56H65.9797V68H73.9797ZM152.094 88.08L149.285 90.9273L152.113 93.7179L154.922 90.9084L152.094 88.08ZM146.094 82.16L148.903 79.3127L146.558 76.998L143.837 78.8577L146.094 82.16ZM139.134 85.52L137.93 81.7057L137.918 81.7094L139.134 85.52ZM120.534 84.48L118.874 88.1195L118.887 88.125L118.899 88.1304L120.534 84.48ZM111.734 78.24L108.834 80.995L108.841 81.0023L108.848 81.0095L111.734 78.24ZM105.774 69L102.072 70.5145L102.076 70.5244L105.774 69ZM105.774 46.44L109.472 47.9644L109.476 47.9545L105.774 46.44ZM111.734 37.16L114.634 39.915L114.634 39.915L111.734 37.16ZM120.534 30.92L122.169 34.5704L122.182 34.565L122.194 34.5595L120.534 30.92ZM141.934 30.92L140.274 34.5595L140.287 34.565L140.299 34.5704L141.934 30.92ZM150.734 37.16L147.834 39.915L147.834 39.915L150.734 37.16ZM156.654 46.44L152.942 47.9304L152.949 47.9474L152.956 47.9644L156.654 46.44ZM157.614 66.04L153.783 64.8906L153.779 64.9031L153.775 64.9155L157.614 66.04ZM154.414 73.44L150.974 71.3997L149.389 74.0717L151.586 76.2684L154.414 73.44ZM160.574 79.6L163.402 82.4284L166.231 79.6L163.402 76.7716L160.574 79.6ZM134.374 74.36L133.475 70.4624L133.463 70.465L133.452 70.4677L134.374 74.36ZM137.374 73.36L138.999 77.0152L144.321 74.6498L140.202 70.5316L137.374 73.36ZM134.014 70L131.186 67.1716L128.357 70L131.186 72.8284L134.014 70ZM142.494 61.52L145.322 58.6916L142.494 55.8631L139.666 58.6916L142.494 61.52ZM145.454 64.48L142.626 67.3084L146.776 71.4585L149.121 66.0783L145.454 64.48ZM146.454 61.2L142.539 60.3805L142.53 60.4244L142.522 60.4684L146.454 61.2ZM145.574 51.08L141.847 52.5321L141.855 52.553L141.863 52.5739L145.574 51.08ZM142.214 45.68L139.263 48.3806L139.275 48.3932L139.286 48.4057L142.214 45.68ZM137.214 42L135.466 45.598L135.497 45.6129L135.528 45.6273L137.214 42ZM125.174 42L126.88 45.6181L126.891 45.6129L126.902 45.6077L125.174 42ZM120.214 45.68L123.142 48.4057L123.153 48.3932L123.165 48.3806L120.214 45.68ZM116.814 51.08L113.103 49.5861L113.095 49.607L113.087 49.6279L116.814 51.08ZM116.814 64.32L113.081 65.7559L113.092 65.785L113.103 65.8139L116.814 64.32ZM120.214 69.76L117.263 72.4606L117.275 72.4732L117.286 72.4857L120.214 69.76ZM125.174 73.4L123.468 77.0181L123.478 77.0227L123.488 77.0273L125.174 73.4ZM154.903 85.2327L148.903 79.3127L143.285 85.0073L149.285 90.9273L154.903 85.2327ZM143.837 78.8577C142.067 80.0674 140.104 81.0189 137.93 81.7057L140.339 89.3343C143.231 88.4211 145.908 87.1326 148.351 85.4623L143.837 78.8577ZM137.918 81.7094C135.825 82.3772 133.597 82.72 131.214 82.72V90.72C134.378 90.72 137.43 90.2628 140.35 89.3306L137.918 81.7094ZM131.214 82.72C127.97 82.72 124.969 82.084 122.169 80.8296L118.899 88.1304C122.765 89.8627 126.885 90.72 131.214 90.72V82.72ZM122.194 80.8405C119.32 79.5301 116.803 77.7451 114.62 75.4705L108.848 81.0095C111.732 84.0149 115.082 86.3899 118.874 88.1195L122.194 80.8405ZM114.634 75.485C112.45 73.1856 110.729 70.5257 109.472 67.4756L102.076 70.5244C103.699 74.461 105.952 77.961 108.834 80.995L114.634 75.485ZM109.476 67.4855C108.244 64.474 107.614 61.2182 107.614 57.68H99.6141C99.6141 62.1951 100.424 66.486 102.072 70.5145L109.476 67.4855ZM107.614 57.68C107.614 54.1719 108.243 50.9463 109.472 47.9644L102.076 44.9156C100.425 48.9204 99.6141 53.1881 99.6141 57.68H107.614ZM109.476 47.9545C110.735 44.8783 112.454 42.2093 114.634 39.915L108.834 34.405C105.947 37.444 103.693 40.9617 102.072 44.9255L109.476 47.9545ZM114.634 39.915C116.811 37.6237 119.315 35.849 122.169 34.5704L118.899 27.2696C115.086 28.9776 111.724 31.363 108.834 34.405L114.634 39.915ZM122.194 34.5595C124.988 33.2851 127.98 32.64 131.214 32.64V24.64C126.875 24.64 122.746 25.5149 118.874 27.2805L122.194 34.5595ZM131.214 32.64C134.479 32.64 137.484 33.2868 140.274 34.5595L143.594 27.2805C139.718 25.5132 135.576 24.64 131.214 24.64V32.64ZM140.299 34.5704C143.153 35.849 145.657 37.6237 147.834 39.915L153.634 34.405C150.744 31.363 147.382 28.9776 143.569 27.2696L140.299 34.5704ZM147.834 39.915C150.008 42.2037 151.711 44.8645 152.942 47.9304L160.366 44.9496C158.77 40.9755 156.526 37.4496 153.634 34.405L147.834 39.915ZM152.956 47.9644C154.185 50.9463 154.814 54.1719 154.814 57.68H162.814C162.814 53.1881 162.003 48.9204 160.352 44.9156L152.956 47.9644ZM154.814 57.68C154.814 60.2146 154.466 62.613 153.783 64.8906L161.445 67.1894C162.362 64.1337 162.814 60.9587 162.814 57.68H154.814ZM153.775 64.9155C153.093 67.245 152.158 69.4028 150.974 71.3997L157.855 75.4803C159.39 72.8905 160.588 70.115 161.453 67.1645L153.775 64.9155ZM151.586 76.2684L157.746 82.4284L163.402 76.7716L157.242 70.6116L151.586 76.2684ZM157.746 76.7716L149.266 85.2516L154.922 90.9084L163.402 82.4284L157.746 76.7716ZM131.214 78.72C132.602 78.72 133.966 78.5673 135.296 78.2523L133.452 70.4677C132.756 70.6327 132.012 70.72 131.214 70.72V78.72ZM135.274 78.2576C136.558 77.961 137.801 77.5473 138.999 77.0152L135.75 69.7048C135.027 70.026 134.27 70.2789 133.475 70.4624L135.274 78.2576ZM140.202 70.5316L136.842 67.1716L131.186 72.8284L134.546 76.1884L140.202 70.5316ZM136.842 72.8284L145.322 64.3484L139.666 58.6916L131.186 67.1716L136.842 72.8284ZM139.666 64.3484L142.626 67.3084L148.282 61.6516L145.322 58.6916L139.666 64.3484ZM149.121 66.0783C149.699 64.7527 150.119 63.368 150.387 61.9316L142.522 60.4684C142.362 61.3254 142.116 62.1273 141.787 62.8817L149.121 66.0783ZM150.369 62.0195C150.667 60.5968 150.814 59.1486 150.814 57.68H142.814C142.814 58.6114 142.721 59.5099 142.539 60.3805L150.369 62.0195ZM150.814 57.68C150.814 54.8526 150.314 52.1424 149.285 49.5861L141.863 52.5739C142.488 54.1243 142.814 55.814 142.814 57.68H150.814ZM149.301 49.6279C148.326 47.1238 146.941 44.8869 145.142 42.9543L139.286 48.4057C140.367 49.5664 141.223 50.9295 141.847 52.5321L149.301 49.6279ZM145.165 42.9794C143.376 41.0253 141.282 39.48 138.9 38.3727L135.528 45.6273C136.932 46.28 138.172 47.188 139.263 48.3806L145.165 42.9794ZM138.962 38.402C136.535 37.2232 133.935 36.64 131.214 36.64V44.64C132.759 44.64 134.16 44.9634 135.466 45.598L138.962 38.402ZM131.214 36.64C128.493 36.64 125.888 37.2231 123.446 38.3923L126.902 45.6077C128.247 44.9636 129.669 44.64 131.214 44.64V36.64ZM123.468 38.3819C121.115 39.4913 119.043 41.0353 117.263 42.9794L123.165 48.3806C124.265 47.1781 125.5 46.2687 126.88 45.6181L123.468 38.3819ZM117.286 42.9543C115.496 44.877 114.105 47.0995 113.103 49.5861L120.525 52.5739C121.177 50.9538 122.052 49.5764 123.142 48.4057L117.286 42.9543ZM113.087 49.6279C112.095 52.1735 111.614 54.8691 111.614 57.68H119.614C119.614 55.7976 119.933 54.0932 120.541 52.5321L113.087 49.6279ZM111.614 57.68C111.614 60.4913 112.095 63.1937 113.081 65.7559L120.547 62.8841C119.933 61.2863 119.614 59.5621 119.614 57.68H111.614ZM113.103 65.8139C114.102 68.2947 115.488 70.5205 117.263 72.4606L123.165 67.0594C122.06 65.8528 121.179 64.452 120.525 62.8261L113.103 65.8139ZM117.286 72.4857C119.065 74.3957 121.13 75.9158 123.468 77.0181L126.88 69.7819C125.485 69.1242 124.243 68.2176 123.142 67.0343L117.286 72.4857ZM123.488 77.0273C125.921 78.1583 128.511 78.72 131.214 78.72V70.72C129.65 70.72 128.213 70.4017 126.86 69.7727L123.488 77.0273ZM165.333 46V42H161.333V46H165.333ZM177.333 46H181.333V42H177.333V46ZM178.253 71.56L174.807 73.5919L174.819 73.6116L174.831 73.6312L178.253 71.56ZM180.693 74L178.622 77.422L178.674 77.4538L178.728 77.4839L180.693 74ZM187.493 74L189.497 77.4617L189.511 77.4536L189.525 77.4455L187.493 74ZM189.933 71.56L186.487 69.5281L186.479 69.5419L186.471 69.5559L189.933 71.56ZM190.853 46V42H186.853V46H190.853ZM202.853 46L206.853 45.996L206.849 42H202.853V46ZM202.893 86V90H206.897L206.893 85.996L202.893 86ZM190.893 86L186.893 86.0615L186.954 90H190.893V86ZM190.853 83.4L194.852 83.3385L194.721 74.7977L188.245 80.3673L190.853 83.4ZM186.293 86.08L187.697 89.8253L186.293 86.08ZM173.053 84.96L170.989 88.3865L171.012 88.4003L171.035 88.4137L173.053 84.96ZM167.413 79.32L163.969 81.3549L163.978 81.3693L163.986 81.3837L167.413 79.32ZM169.333 71.48V46H161.333V71.48H169.333ZM165.333 50H177.333V42H165.333V50ZM173.333 46V68.12H181.333V46H173.333ZM173.333 68.12C173.333 70.0596 173.817 71.9123 174.807 73.5919L181.698 69.5281C181.462 69.1277 181.333 68.6871 181.333 68.12H173.333ZM174.831 73.6312C175.779 75.1973 177.056 76.4741 178.622 77.422L182.764 70.578C182.303 70.2992 181.954 69.9494 181.675 69.4888L174.831 73.6312ZM178.728 77.4839C180.384 78.4184 182.197 78.88 184.093 78.88V70.88C183.535 70.88 183.081 70.7549 182.658 70.5161L178.728 77.4839ZM184.093 78.88C185.999 78.88 187.832 78.4258 189.497 77.4617L185.489 70.5383C185.127 70.7475 184.694 70.88 184.093 70.88V78.88ZM189.525 77.4455C191.138 76.494 192.452 75.1919 193.395 73.5641L186.471 69.5559C186.24 69.9547 185.928 70.2793 185.461 70.5545L189.525 77.4455ZM193.378 73.5919C194.369 71.9123 194.853 70.0596 194.853 68.12H186.853C186.853 68.6871 186.723 69.1277 186.487 69.5281L193.378 73.5919ZM194.853 68.12V46H186.853V68.12H194.853ZM190.853 50H202.853V42H190.853V50ZM198.853 46.004L198.893 86.004L206.893 85.996L206.853 45.996L198.853 46.004ZM202.893 82H190.893V90H202.893V82ZM194.892 85.9385L194.852 83.3385L186.853 83.4615L186.893 86.0615L194.892 85.9385ZM188.245 80.3673C187.281 81.1964 186.171 81.8536 184.888 82.3347L187.697 89.8253C189.828 89.0264 191.758 87.8969 193.461 86.4327L188.245 80.3673ZM184.888 82.3347C183.648 82.7998 182.325 83.04 180.893 83.04V91.04C183.247 91.04 185.524 90.6402 187.697 89.8253L184.888 82.3347ZM180.893 83.04C178.72 83.04 176.808 82.5212 175.071 81.5063L171.035 88.4137C174.044 90.1721 177.359 91.04 180.893 91.04V83.04ZM175.117 81.5335C173.328 80.4565 171.916 79.0444 170.839 77.2563L163.986 81.3837C165.736 84.2889 168.084 86.6368 170.989 88.3865L175.117 81.5335ZM170.857 77.2851C169.855 75.59 169.333 73.6863 169.333 71.48H161.333C161.333 75.0337 162.197 78.3566 163.969 81.3549L170.857 77.2851ZM217.578 84.2L215.45 87.5869L215.456 87.5911L215.463 87.5953L217.578 84.2ZM210.338 76.56L206.845 78.51L206.851 78.521L206.858 78.532L210.338 76.56ZM209.218 57.8L212.918 59.3191L212.921 59.3123L212.924 59.3055L209.218 57.8ZM213.498 51.08L210.591 48.3323L210.59 48.3335L213.498 51.08ZM219.898 46.52L218.255 42.8731L218.255 42.8731L219.898 46.52ZM236.418 47L234.53 50.5264L234.551 50.5378L234.572 50.5489L236.418 47ZM243.138 52.68L239.946 55.0913L239.961 55.1112L239.977 55.1308L243.138 52.68ZM247.058 60.72L250.93 59.7174L250.93 59.7173L247.058 60.72ZM247.298 69.96V73.96H250.599L251.225 70.7191L247.298 69.96ZM220.618 69.96V65.96H214.71L216.904 71.4456L220.618 69.96ZM222.098 72.52L218.964 75.0056L219.011 75.0653L219.061 75.1232L222.098 72.52ZM224.418 74.32L222.629 77.8977L222.65 77.908L222.67 77.918L224.418 74.32ZM227.658 75.04L227.749 71.041L227.745 71.0409L227.658 75.04ZM230.898 74.28L229.035 70.7403L229.015 70.7506L228.996 70.7612L230.898 74.28ZM233.538 72.12L234.442 68.2235L232.026 67.6631L230.45 69.5772L233.538 72.12ZM245.778 74.96L249.414 76.6276L251.457 72.1715L246.682 71.0635L245.778 74.96ZM238.498 83.68L240.779 86.9658L240.788 86.9595L240.797 86.9531L238.498 83.68ZM220.178 61.16L216.401 59.8425L214.546 65.16H220.178V61.16ZM235.178 61.16V65.16H240.687L238.981 59.9217L235.178 61.16ZM230.858 56.04L229.031 59.5983L229.05 59.6081L229.069 59.6177L230.858 56.04ZM224.458 56.04L222.669 52.4623L222.65 52.4719L222.631 52.4817L224.458 56.04ZM221.858 58.12L218.808 55.5321L218.785 55.5594L218.762 55.587L221.858 58.12ZM227.658 83.04C224.704 83.04 222.08 82.2915 219.692 80.8047L215.463 87.5953C219.156 89.8952 223.252 91.04 227.658 91.04V83.04ZM219.706 80.8131C217.273 79.2842 215.316 77.2317 213.818 74.5879L206.858 78.532C208.986 82.2883 211.856 85.3291 215.45 87.5869L219.706 80.8131ZM213.83 74.61C212.395 72.0391 211.658 69.1829 211.658 65.96H203.658C203.658 70.4704 204.707 74.6809 206.845 78.51L213.83 74.61ZM211.658 65.96C211.658 63.542 212.088 61.3413 212.918 59.3191L205.517 56.2809C204.268 59.3254 203.658 62.5647 203.658 65.96H211.658ZM212.924 59.3055C213.786 57.1835 214.949 55.3693 216.406 53.8265L210.59 48.3335C208.42 50.6307 206.73 53.2965 205.512 56.2945L212.924 59.3055ZM216.405 53.8277C217.889 52.2578 219.593 51.0444 221.541 50.1669L218.255 42.8731C215.349 44.1822 212.787 46.0088 210.591 48.3323L216.405 53.8277ZM221.541 50.1669C223.434 49.3138 225.459 48.88 227.658 48.88V40.88C224.363 40.88 221.215 41.5395 218.255 42.8731L221.541 50.1669ZM227.658 48.88C230.246 48.88 232.51 49.4452 234.53 50.5264L238.306 43.4735C235.045 41.7281 231.47 40.88 227.658 40.88V48.88ZM234.572 50.5489C236.711 51.6609 238.491 53.1655 239.946 55.0913L246.329 50.2687C244.158 47.3945 241.458 45.1124 238.263 43.4511L234.572 50.5489ZM239.977 55.1308C241.474 57.0629 242.545 59.2473 243.186 61.7226L250.93 59.7173C250.024 56.2194 248.481 53.0438 246.299 50.2292L239.977 55.1308ZM243.186 61.7226C243.803 64.106 243.876 66.5831 243.37 69.2009L251.225 70.7191C251.946 66.9902 251.86 63.3073 250.93 59.7174L243.186 61.7226ZM247.298 65.96H220.618V73.96H247.298V65.96ZM216.904 71.4456C217.418 72.7318 218.105 73.9231 218.964 75.0056L225.232 70.0344C224.864 69.5702 224.564 69.0548 224.332 68.4744L216.904 71.4456ZM219.061 75.1232C220.058 76.2872 221.26 77.2135 222.629 77.8977L226.207 70.7423C225.762 70.5199 225.417 70.2462 225.135 69.9168L219.061 75.1232ZM222.67 77.918C224.208 78.6648 225.872 79.0021 227.571 79.0391L227.745 71.0409C226.99 71.0245 226.495 70.8818 226.165 70.722L222.67 77.918ZM227.567 79.039C229.401 79.0807 231.173 78.6782 232.8 77.7988L228.996 70.7612C228.649 70.9485 228.261 71.0527 227.749 71.041L227.567 79.039ZM232.761 77.8197C234.257 77.0323 235.55 75.9691 236.626 74.6628L230.45 69.5772C230.032 70.0843 229.566 70.461 229.035 70.7403L232.761 77.8197ZM232.634 76.0165L244.874 78.8565L246.682 71.0635L234.442 68.2235L232.634 76.0165ZM242.142 73.2924C240.814 76.1878 238.852 78.543 236.199 80.4069L240.797 86.9531C244.597 84.2836 247.488 80.8255 249.414 76.6276L242.142 73.2924ZM236.217 80.3942C233.673 82.1602 230.858 83.04 227.658 83.04V91.04C232.457 91.04 236.869 89.6798 240.779 86.9658L236.217 80.3942ZM220.178 65.16H235.178V57.16H220.178V65.16ZM238.981 59.9217C238.454 58.303 237.646 56.8264 236.548 55.5321L230.448 60.7079C230.843 61.1736 231.155 61.7236 231.374 62.3983L238.981 59.9217ZM236.548 55.5321C235.459 54.2483 234.152 53.215 232.647 52.4623L229.069 59.6177C229.59 59.8784 230.044 60.2317 230.448 60.7079L236.548 55.5321ZM232.685 52.4817C231.114 51.6748 229.418 51.28 227.658 51.28V59.28C228.191 59.28 228.629 59.3919 229.031 59.5983L232.685 52.4817ZM227.658 51.28C225.909 51.28 224.231 51.6812 222.669 52.4623L226.247 59.6177C226.711 59.3854 227.166 59.28 227.658 59.28V51.28ZM222.631 52.4817C221.158 53.2381 219.88 54.268 218.808 55.5321L224.908 60.7079C225.329 60.212 225.785 59.8552 226.285 59.5983L222.631 52.4817ZM218.762 55.587C217.726 56.8533 216.945 58.2842 216.401 59.8425L223.955 62.4775C224.211 61.7424 224.55 61.1467 224.954 60.653L218.762 55.587ZM265.484 86.72L265.86 82.7377L265.851 82.7369L265.484 86.72ZM259.644 85.4L261.037 81.6503L261.037 81.6503L259.644 85.4ZM254.644 82.56L257.177 79.4642L257.177 79.4642L254.644 82.56ZM251.164 78.16L249.588 74.4834L245.713 76.1442L247.575 79.9267L251.164 78.16ZM261.244 73.84L264.204 71.1493L262.287 69.0411L259.668 70.1634L261.244 73.84ZM262.364 74.96L259.618 77.8681L259.661 77.9095L259.707 77.9496L262.364 74.96ZM264.164 76.12L262.429 79.724L262.454 79.7362L262.48 79.748L264.164 76.12ZM268.844 76.44L269.66 80.3559L269.719 80.3436L269.778 80.3295L268.844 76.44ZM270.444 75.64L267.81 72.6297L267.762 72.672L267.715 72.7158L270.444 75.64ZM270.244 72.4L267.844 75.6L267.933 75.6666L268.025 75.7282L270.244 72.4ZM268.284 71.56L267.346 75.4483L267.409 75.4637L267.474 75.477L268.284 71.56ZM266.124 71.12L266.756 67.1702L266.746 67.1686L266.124 71.12ZM259.284 68.88L257.409 72.413L257.434 72.4268L257.461 72.4402L259.284 68.88ZM253.964 64.44L250.77 66.8474L250.778 66.8586L250.787 66.8698L253.964 64.44ZM254.004 50.88L257.271 53.1884L257.271 53.1884L254.004 50.88ZM259.524 46.28L261.227 49.8993L261.236 49.895L261.245 49.8907L259.524 46.28ZM275.564 46.56L273.819 50.1593L273.826 50.1627L273.833 50.1661L275.564 46.56ZM282.124 52.08L284.165 55.5202L287.902 53.3032L285.384 49.7619L282.124 52.08ZM272.684 57.68L269.561 60.1788L271.733 62.8948L274.725 61.1202L272.684 57.68ZM271.484 56.48L268.743 59.3928L268.831 59.4756L268.923 59.5529L271.484 56.48ZM269.884 55.4L267.969 58.9116L268.062 58.9626L268.158 59.0085L269.884 55.4ZM267.964 54.8L268.423 50.8264L268.364 50.8196L268.306 50.8146L267.964 54.8ZM265.444 54.92L266.172 58.8531L266.227 58.8429L266.282 58.8312L265.444 54.92ZM263.724 55.8L266.552 58.6284L266.595 58.5856L266.637 58.5415L263.724 55.8ZM264.204 59.36L262.52 62.988L262.52 62.988L264.204 59.36ZM266.724 60.12L266.048 64.0625L266.048 64.0625L266.724 60.12ZM269.004 60.64L270.242 56.8365L270.23 56.8324L270.217 56.8283L269.004 60.64ZM275.484 63.56L277.522 60.1181L277.522 60.1181L275.484 63.56ZM280.364 67.92L277.116 70.2545L277.128 70.2712L277.14 70.2876L280.364 67.92ZM282.124 73.92L278.126 73.7806L278.124 73.8503V73.92H282.124ZM279.724 80.96L282.864 83.4386L282.864 83.4386L279.724 80.96ZM273.524 85.56L272.005 81.8597L273.524 85.56ZM265.851 82.7369C264.167 82.5818 262.566 82.2183 261.037 81.6503L258.251 89.1497C260.455 89.9684 262.748 90.4849 265.117 90.7031L265.851 82.7369ZM261.037 81.6503C259.562 81.1027 258.285 80.3709 257.177 79.4642L252.111 85.6558C253.936 87.1491 255.992 88.3106 258.251 89.1497L261.037 81.6503ZM257.177 79.4642C256.162 78.6338 255.358 77.6235 254.753 76.3933L247.575 79.9267C248.676 82.1632 250.193 84.0862 252.111 85.6558L257.177 79.4642ZM252.74 81.8366L262.82 77.5166L259.668 70.1634L249.588 74.4834L252.74 81.8366ZM258.284 76.5307C258.649 76.932 259.105 77.3842 259.618 77.8681L265.111 72.0519C264.663 71.6291 264.372 71.3346 264.204 71.1493L258.284 76.5307ZM259.707 77.9496C260.522 78.6744 261.452 79.2538 262.429 79.724L265.899 72.516C265.436 72.2928 265.166 72.0989 265.022 71.9704L259.707 77.9496ZM262.48 79.748C263.874 80.3954 265.371 80.64 266.844 80.64V72.64C266.237 72.64 265.948 72.538 265.849 72.492L262.48 79.748ZM266.844 80.64C267.795 80.64 268.736 80.5484 269.66 80.3559L268.028 72.5241C267.672 72.5982 267.28 72.64 266.844 72.64V80.64ZM269.778 80.3295C270.949 80.0485 272.156 79.5141 273.173 78.5642L267.715 72.7158C267.933 72.5125 268.073 72.5115 267.911 72.5505L269.778 80.3295ZM273.078 78.6503C274.528 77.3818 275.084 75.6767 275.084 74.08H267.084C267.084 73.9877 267.099 73.7543 267.223 73.4518C267.354 73.1334 267.561 72.8474 267.81 72.6297L273.078 78.6503ZM275.084 74.08C275.084 72.1681 274.272 70.2777 272.463 69.0718L268.025 75.7282C267.771 75.5586 267.491 75.278 267.296 74.8889C267.11 74.5163 267.084 74.2091 267.084 74.08H275.084ZM272.644 69.2C271.561 68.3877 270.339 67.9004 269.094 67.643L267.474 75.477C267.776 75.5396 267.86 75.6123 267.844 75.6L272.644 69.2ZM269.223 67.6717C268.365 67.4647 267.542 67.296 266.756 67.1702L265.492 75.0698C266.04 75.1574 266.656 75.282 267.346 75.4483L269.223 67.6717ZM266.746 67.1686C264.801 66.8626 262.925 66.251 261.108 65.3198L257.461 72.4402C260.016 73.749 262.701 74.6307 265.502 75.0714L266.746 67.1686ZM261.16 65.347C259.471 64.4506 258.154 63.3344 257.141 62.0102L250.787 66.8698C252.547 69.1723 254.777 71.0161 257.409 72.413L261.16 65.347ZM257.158 62.0326C256.33 60.9327 255.884 59.6447 255.884 58H247.884C247.884 61.262 248.825 64.2673 250.77 66.8474L257.158 62.0326ZM255.884 58C255.884 55.9754 256.392 54.4325 257.271 53.1884L250.737 48.5716C248.79 51.3275 247.884 54.5313 247.884 58H255.884ZM257.271 53.1884C258.276 51.7666 259.571 50.6785 261.227 49.8993L257.821 42.6607C254.943 44.0148 252.559 45.9934 250.737 48.5716L257.271 53.1884ZM261.245 49.8907C262.98 49.0638 264.856 48.64 266.924 48.64V40.64C263.712 40.64 260.655 41.3096 257.803 42.6693L261.245 49.8907ZM266.924 48.64C269.479 48.64 271.757 49.1596 273.819 50.1593L277.309 42.9607C274.091 41.4004 270.609 40.64 266.924 40.64V48.64ZM273.833 50.1661C275.892 51.1544 277.552 52.5525 278.864 54.3981L285.384 49.7619C283.283 46.8075 280.569 44.5256 277.295 42.9539L273.833 50.1661ZM280.083 48.6398L270.643 54.2398L274.725 61.1202L284.165 55.5202L280.083 48.6398ZM275.808 55.1812C275.288 54.5317 274.688 53.9431 274.045 53.4071L268.923 59.5529C269.24 59.8169 269.44 60.0283 269.561 60.1788L275.808 55.1812ZM274.226 53.5672C273.445 52.8328 272.562 52.2466 271.61 51.7915L268.158 59.0085C268.433 59.1401 268.616 59.2739 268.743 59.3928L274.226 53.5672ZM271.799 51.8884C270.741 51.3113 269.604 50.9626 268.423 50.8264L267.506 58.7736C267.711 58.7974 267.853 58.8487 267.969 58.9116L271.799 51.8884ZM268.306 50.8146C267.063 50.7081 265.816 50.7495 264.606 51.0088L266.282 58.8312C266.565 58.7705 266.998 58.7319 267.622 58.7854L268.306 50.8146ZM264.716 50.9869C263.311 51.2469 261.919 51.882 260.811 53.0585L266.637 58.5415C266.525 58.6599 266.403 58.7463 266.296 58.801C266.195 58.8529 266.142 58.8588 266.172 58.8531L264.716 50.9869ZM260.896 52.9716C259.476 54.3913 259.084 56.1941 259.084 57.68H267.084C267.084 57.6007 267.095 57.6888 267.031 57.8791C266.959 58.0883 266.813 58.368 266.552 58.6284L260.896 52.9716ZM259.084 57.68C259.084 58.7353 259.349 59.8678 260.036 60.8988C260.713 61.9142 261.628 62.5741 262.52 62.988L265.889 55.732C266.033 55.7992 266.389 56.0058 266.692 56.4612C267.006 56.9322 267.084 57.398 267.084 57.68H259.084ZM262.52 62.988C263.631 63.504 264.817 63.8515 266.048 64.0625L267.4 56.1775C266.764 56.0685 266.271 55.9093 265.889 55.732L262.52 62.988ZM266.048 64.0625C266.885 64.206 267.447 64.3422 267.791 64.4517L270.217 56.8283C269.388 56.5644 268.429 56.354 267.4 56.1775L266.048 64.0625ZM267.766 64.4435C269.787 65.1015 271.678 65.9549 273.446 67.0019L277.522 60.1181C275.237 58.765 272.808 57.6718 270.242 56.8365L267.766 64.4435ZM273.446 67.0019C275.055 67.9544 276.249 69.0478 277.116 70.2545L283.612 65.5855C282.026 63.3788 279.967 61.5656 277.522 60.1181L273.446 67.0019ZM277.14 70.2876C277.815 71.2072 278.178 72.3058 278.126 73.7806L286.122 74.0594C286.23 70.9475 285.419 68.0462 283.588 65.5524L277.14 70.2876ZM278.124 73.92C278.124 75.7191 277.608 77.1853 276.585 78.4814L282.864 83.4386C285.04 80.6814 286.124 77.4543 286.124 73.92H278.124ZM276.585 78.4814C275.437 79.9354 273.942 81.0645 272.005 81.8597L275.043 89.2603C278.173 87.9755 280.812 86.0379 282.864 83.4386L276.585 78.4814ZM272.005 81.8597C270.094 82.6444 268.066 82.9458 265.86 82.7377L265.108 90.7023C268.556 91.0275 271.888 90.5556 275.043 89.2603L272.005 81.8597ZM310.886 58V62H314.886V58H310.886ZM304.086 58V54H300.086V58H304.086ZM304.086 86V90H308.086V86H304.086ZM292.086 86H288.086V90H292.086V86ZM292.086 58H296.086V54H292.086V58ZM286.886 58H282.886V62H286.886V58ZM286.886 46V42H282.886V46H286.886ZM292.086 46V50H296.086V46H292.086ZM292.086 33.44V29.44H288.086V33.44H292.086ZM304.086 33.44H308.086V29.44H304.086V33.44ZM304.086 46H300.086V50H304.086V46ZM310.886 46H314.886V42H310.886V46ZM310.886 54H304.086V62H310.886V54ZM300.086 58V86H308.086V58H300.086ZM304.086 82H292.086V90H304.086V82ZM296.086 86V58H288.086V86H296.086ZM292.086 54H286.886V62H292.086V54ZM290.886 58V46H282.886V58H290.886ZM286.886 50H292.086V42H286.886V50ZM296.086 46V33.44H288.086V46H296.086ZM292.086 37.44H304.086V29.44H292.086V37.44ZM300.086 33.44V46H308.086V33.44H300.086ZM304.086 50H310.886V42H304.086V50ZM306.886 46V58H314.886V46H306.886ZM317.245 46V42H313.245V46H317.245ZM329.245 46H333.245V42H329.245V46ZM329.245 86V90H333.245V86H329.245ZM317.245 86H313.245V90H317.245V86ZM318.965 40.12L316.17 42.9807L316.17 42.9807L318.965 40.12ZM318.965 31.6L321.761 34.4607L321.777 34.4447L321.794 34.4284L318.965 31.6ZM327.525 31.6L324.665 34.3957L324.697 34.4286L324.73 34.4607L327.525 31.6ZM327.565 40.12L324.737 37.2916L324.72 37.3082L324.704 37.325L327.565 40.12ZM317.245 50H329.245V42H317.245V50ZM325.245 46V86H333.245V46H325.245ZM329.245 82H317.245V90H329.245V82ZM321.245 86V46H313.245V86H321.245ZM323.325 37.84C322.572 37.84 322.142 37.6311 321.761 37.2592L316.17 42.9807C318.136 44.9022 320.612 45.84 323.325 45.84V37.84ZM321.761 37.2592C321.392 36.8985 321.205 36.5184 321.205 35.84H313.205C313.205 38.5749 314.192 41.0482 316.17 42.9807L321.761 37.2592ZM321.205 35.84C321.205 35.2077 321.378 34.8347 321.761 34.4607L316.17 28.7393C314.206 30.6586 313.205 33.1123 313.205 35.84H321.205ZM321.794 34.4284C322.193 34.0288 322.606 33.84 323.285 33.84V25.84C320.552 25.84 318.084 26.8245 316.137 28.7716L321.794 34.4284ZM323.285 33.84C323.918 33.84 324.291 34.0131 324.665 34.3957L330.386 28.8043C328.467 26.8403 326.013 25.84 323.285 25.84V33.84ZM324.73 34.4607C325.112 34.8347 325.285 35.2077 325.285 35.84H333.285C333.285 33.1123 332.285 30.6586 330.321 28.7392L324.73 34.4607ZM325.285 35.84C325.285 36.5477 325.091 36.9377 324.737 37.2916L330.394 42.9484C332.333 41.009 333.285 38.5457 333.285 35.84H325.285ZM324.704 37.325C324.389 37.6473 324.032 37.84 323.325 37.84V45.84C326.032 45.84 328.502 44.886 330.427 42.915L324.704 37.325ZM345.156 84.2L343.028 87.5869L343.035 87.5911L343.041 87.5953L345.156 84.2ZM337.916 76.6L334.423 78.55L334.433 78.5673L334.443 78.5846L337.916 76.6ZM336.796 57.8L340.496 59.3191L340.499 59.3123L340.502 59.3055L336.796 57.8ZM341.076 51.08L338.169 48.3323L338.168 48.3335L341.076 51.08ZM347.476 46.52L345.833 42.8731L345.833 42.8731L347.476 46.52ZM365.276 47.72L363.148 51.1069L363.155 51.1111L363.161 51.1153L365.276 47.72ZM372.516 55.36L369.023 57.31L369.03 57.321L369.036 57.332L372.516 55.36ZM373.676 74.16L369.976 72.6409L369.976 72.6409L373.676 74.16ZM369.356 80.88L366.449 78.1323L366.448 78.1335L369.356 80.88ZM362.996 85.4L361.353 81.7531L361.345 81.7565L361.338 81.7599L362.996 85.4ZM359.316 73.8L357.081 70.4829L357.064 70.4944L357.047 70.506L359.316 73.8ZM362.196 70.52L365.76 72.3368L365.767 72.3228L365.774 72.3089L362.196 70.52ZM362.116 61.4L358.566 63.2433L358.58 63.2699L358.594 63.2964L362.116 61.4ZM359.196 58.12L356.927 61.414L356.968 61.4428L357.011 61.4704L359.196 58.12ZM351.156 58.16L353.425 61.454L353.433 61.4488L353.44 61.4436L351.156 58.16ZM348.276 61.48L344.726 59.6367L344.712 59.6638L344.698 59.6911L348.276 61.48ZM348.316 70.6L344.781 72.4716L344.795 72.4984L344.81 72.525L348.316 70.6ZM351.236 73.84L349.017 77.1682L349.034 77.1794L349.051 77.1904L351.236 73.84ZM355.236 83.04C352.282 83.04 349.658 82.2915 347.271 80.8047L343.041 87.5953C346.734 89.8952 350.83 91.04 355.236 91.04V83.04ZM347.284 80.8131C344.843 79.2792 342.885 77.2339 341.389 74.6154L334.443 78.5846C336.573 82.3128 339.442 85.3341 343.028 87.5869L347.284 80.8131ZM341.408 74.65C339.973 72.0791 339.236 69.2229 339.236 66H331.236C331.236 70.5104 332.286 74.7209 334.423 78.55L341.408 74.65ZM339.236 66C339.236 63.5502 339.668 61.3369 340.496 59.3191L333.096 56.2809C331.844 59.3298 331.236 62.5831 331.236 66H339.236ZM340.502 59.3055C341.364 57.1835 342.527 55.3693 343.984 53.8265L338.168 48.3335C335.998 50.6307 334.308 53.2965 333.09 56.2945L340.502 59.3055ZM343.983 53.8277C345.467 52.2578 347.171 51.0444 349.119 50.1669L345.833 42.8731C342.927 44.1822 340.365 46.0088 338.169 48.3323L343.983 53.8277ZM349.119 50.1669C351.013 49.3138 353.037 48.88 355.236 48.88V40.88C351.941 40.88 348.793 41.5395 345.833 42.8731L349.119 50.1669ZM355.236 48.88C358.19 48.88 360.795 49.6283 363.148 51.1069L367.404 44.3331C363.731 42.025 359.642 40.88 355.236 40.88V48.88ZM363.161 51.1153C365.613 52.6425 367.558 54.6861 369.023 57.31L376.008 53.41C373.9 49.6339 371.018 46.5842 367.391 44.3247L363.161 51.1153ZM369.036 57.332C370.488 59.8952 371.236 62.756 371.236 66H379.236C379.236 61.4574 378.17 57.2248 375.996 53.3879L369.036 57.332ZM371.236 66C371.236 68.418 370.806 70.6187 369.976 72.6409L377.376 75.6791C378.626 72.6346 379.236 69.3953 379.236 66H371.236ZM369.976 72.6409C369.118 74.7298 367.944 76.551 366.449 78.1323L372.263 83.6277C374.448 81.3156 376.154 78.6568 377.376 75.6791L369.976 72.6409ZM366.448 78.1335C364.996 79.6706 363.307 80.8727 361.353 81.7531L364.639 89.0469C367.538 87.7407 370.089 85.9294 372.264 83.6265L366.448 78.1335ZM361.338 81.7599C359.485 82.6039 357.467 83.04 355.236 83.04V91.04C358.551 91.04 361.707 90.3828 364.654 89.0401L361.338 81.7599ZM355.236 79.04C357.529 79.04 359.688 78.4011 361.585 77.094L357.047 70.506C356.544 70.8523 355.983 71.04 355.236 71.04V79.04ZM361.551 77.1171C363.359 75.8986 364.768 74.2813 365.76 72.3368L358.632 68.7032C358.237 69.4787 357.726 70.048 357.081 70.4829L361.551 77.1171ZM365.774 72.3089C366.758 70.3393 367.236 68.2162 367.236 66H359.236C359.236 67.0371 359.02 67.9274 358.618 68.7311L365.774 72.3089ZM367.236 66C367.236 63.7035 366.719 61.5119 365.638 59.5036L358.594 63.2964C359.006 64.0615 359.236 64.9365 359.236 66H367.236ZM365.666 59.5567C364.65 57.6008 363.224 55.9712 361.381 54.7696L357.011 61.4704C357.622 61.8688 358.142 62.4259 358.566 63.2433L365.666 59.5567ZM361.465 54.826C359.606 53.5454 357.497 52.88 355.236 52.88V60.88C355.855 60.88 356.386 61.0413 356.927 61.414L361.465 54.826ZM355.236 52.88C352.925 52.88 350.768 53.557 348.872 54.8764L353.44 61.4436C353.997 61.0564 354.56 60.88 355.236 60.88V52.88ZM348.887 54.866C347.109 56.0907 345.725 57.7121 344.726 59.6367L351.826 63.3233C352.267 62.4746 352.803 61.8826 353.425 61.454L348.887 54.866ZM344.698 59.6911C343.713 61.6607 343.236 63.7838 343.236 66H351.236C351.236 64.9629 351.452 64.0726 351.854 63.2689L344.698 59.6911ZM343.236 66C343.236 68.2867 343.723 70.4742 344.781 72.4716L351.851 68.7284C351.469 68.0058 351.236 67.1266 351.236 66H343.236ZM344.81 72.525C345.842 74.4057 347.241 75.9842 349.017 77.1682L353.455 70.5118C352.831 70.0958 352.283 69.5143 351.822 68.675L344.81 72.525ZM349.051 77.1904C350.916 78.4067 353.006 79.04 355.236 79.04V71.04C354.586 71.04 354.009 70.8733 353.421 70.4896L349.051 77.1904ZM418.79 86V90H422.79V86H418.79ZM406.79 86H402.79V90H406.79V86ZM405.87 60.4L402.424 62.4319L402.436 62.4516L402.448 62.4712L405.87 60.4ZM403.43 57.96L401.358 61.382L401.392 61.4022L401.426 61.4217L403.43 57.96ZM396.59 57.96L398.594 61.4217L398.608 61.4136L398.622 61.4055L396.59 57.96ZM394.15 60.4L390.704 58.3681L390.696 58.3819L390.688 58.3959L394.15 60.4ZM393.27 86V90H397.27V86H393.27ZM381.27 86L377.27 86.004L377.274 90H381.27V86ZM381.23 46V42H377.226L377.23 46.004L381.23 46ZM393.23 46L397.229 45.9365L397.167 42H393.23V46ZM393.27 48.52L389.27 48.5835L389.406 57.1188L395.878 51.5527L393.27 48.52ZM397.83 45.84L396.425 42.0947L396.425 42.0947L397.83 45.84ZM411.07 47L409.006 50.4265L409.02 50.4352L409.035 50.4437L411.07 47ZM416.67 52.6L413.226 54.6349L413.235 54.6493L413.243 54.6637L416.67 52.6ZM414.79 60.44V86H422.79V60.44H414.79ZM418.79 82H406.79V90H418.79V82ZM410.79 86V63.8H402.79V86H410.79ZM410.79 63.8C410.79 61.8607 410.305 60.0036 409.292 58.3288L402.448 62.4712C402.661 62.823 402.79 63.2326 402.79 63.8H410.79ZM409.315 58.3681C408.364 56.7547 407.062 55.4407 405.434 54.4983L401.426 61.4217C401.824 61.6526 402.149 61.9653 402.424 62.4319L409.315 58.3681ZM405.501 54.538C403.826 53.5243 401.969 53.04 400.03 53.04V61.04C400.597 61.04 401.007 61.169 401.358 61.382L405.501 54.538ZM400.03 53.04C398.09 53.04 396.237 53.524 394.558 54.5145L398.622 61.4055C399.022 61.1694 399.463 61.04 400.03 61.04V53.04ZM394.586 54.4983C392.958 55.4407 391.656 56.7547 390.704 58.3681L397.595 62.4319C397.87 61.9653 398.195 61.6526 398.594 61.4217L394.586 54.4983ZM390.688 58.3959C389.724 60.0612 389.27 61.8942 389.27 63.8H397.27C397.27 63.1991 397.402 62.7655 397.611 62.4041L390.688 58.3959ZM389.27 63.8V86H397.27V63.8H389.27ZM393.27 82H381.27V90H393.27V82ZM385.27 85.996L385.23 45.996L377.23 46.004L377.27 86.004L385.27 85.996ZM381.23 50H393.23V42H381.23V50ZM389.23 46.0635L389.27 48.5835L397.269 48.4565L397.229 45.9365L389.23 46.0635ZM395.878 51.5527C396.842 50.7236 397.951 50.0664 399.234 49.5853L396.425 42.0947C394.295 42.8936 392.364 44.0231 390.662 45.4873L395.878 51.5527ZM399.234 49.5853C400.474 49.1202 401.797 48.88 403.23 48.88V40.88C400.876 40.88 398.598 41.2798 396.425 42.0947L399.234 49.5853ZM403.23 48.88C405.421 48.88 407.315 49.408 409.006 50.4265L413.133 43.5735C410.131 41.7653 406.798 40.88 403.23 40.88V48.88ZM409.035 50.4437C410.801 51.4871 412.183 52.8691 413.226 54.6349L420.113 50.5651C418.383 47.6375 416.032 45.2862 413.105 43.5563L409.035 50.4437ZM413.243 54.6637C414.262 56.3548 414.79 58.2483 414.79 60.44H422.79C422.79 56.8717 421.904 53.5385 420.096 50.5363L413.243 54.6637ZM438.297 86.72L438.672 82.7377L438.663 82.7369L438.297 86.72ZM432.457 85.4L433.849 81.6503L433.849 81.6503L432.457 85.4ZM427.457 82.56L429.99 79.4642L429.99 79.4642L427.457 82.56ZM423.977 78.16L422.401 74.4834L418.526 76.1442L420.388 79.9267L423.977 78.16ZM434.057 73.84L437.016 71.1493L435.1 69.0411L432.481 70.1634L434.057 73.84ZM435.177 74.96L432.43 77.8681L432.474 77.9095L432.519 77.9496L435.177 74.96ZM436.977 76.12L435.241 79.724L435.267 79.7362L435.292 79.748L436.977 76.12ZM441.657 76.44L442.472 80.3559L442.531 80.3436L442.59 80.3295L441.657 76.44ZM443.257 75.64L440.623 72.6297L440.574 72.672L440.527 72.7158L443.257 75.64ZM443.057 72.4L440.657 75.6L440.745 75.6666L440.838 75.7282L443.057 72.4ZM441.097 71.56L440.158 75.4483L440.222 75.4637L440.286 75.477L441.097 71.56ZM438.937 71.12L439.569 67.1702L439.558 67.1686L438.937 71.12ZM432.097 68.88L430.221 72.413L430.247 72.4268L430.273 72.4402L432.097 68.88ZM426.777 64.44L423.582 66.8474L423.591 66.8586L423.599 66.8698L426.777 64.44ZM426.817 50.88L430.083 53.1884L430.083 53.1884L426.817 50.88ZM432.337 46.28L434.04 49.8993L434.049 49.895L434.058 49.8907L432.337 46.28ZM448.377 46.56L446.631 50.1593L446.639 50.1627L446.646 50.1661L448.377 46.56ZM454.937 52.08L456.977 55.5202L460.715 53.3032L458.196 49.7619L454.937 52.08ZM445.497 57.68L442.373 60.1788L444.546 62.8948L447.537 61.1202L445.497 57.68ZM444.297 56.48L441.555 59.3928L441.643 59.4756L441.736 59.5529L444.297 56.48ZM442.697 55.4L440.781 58.9116L440.875 58.9626L440.971 59.0085L442.697 55.4ZM440.777 54.8L441.235 50.8264L441.177 50.8196L441.118 50.8146L440.777 54.8ZM438.257 54.92L438.985 58.8531L439.04 58.8429L439.095 58.8312L438.257 54.92ZM436.537 55.8L439.365 58.6284L439.408 58.5856L439.449 58.5415L436.537 55.8ZM437.017 59.36L435.332 62.988L435.332 62.988L437.017 59.36ZM439.537 60.12L438.861 64.0625L438.861 64.0625L439.537 60.12ZM441.817 60.64L443.055 56.8365L443.042 56.8324L443.029 56.8283L441.817 60.64ZM448.297 63.56L450.335 60.1181L450.335 60.1181L448.297 63.56ZM453.177 67.92L449.929 70.2545L449.94 70.2712L449.953 70.2876L453.177 67.92ZM454.937 73.92L450.939 73.7806L450.937 73.8503V73.92H454.937ZM452.537 80.96L455.676 83.4386L455.676 83.4386L452.537 80.96ZM446.337 85.56L444.817 81.8597L446.337 85.56ZM438.663 82.7369C436.98 82.5818 435.379 82.2183 433.849 81.6503L431.064 89.1497C433.268 89.9684 435.56 90.4849 437.93 90.7031L438.663 82.7369ZM433.849 81.6503C432.375 81.1027 431.098 80.3709 429.99 79.4642L424.924 85.6558C426.749 87.1491 428.805 88.3106 431.064 89.1497L433.849 81.6503ZM429.99 79.4642C428.975 78.6338 428.171 77.6235 427.565 76.3933L420.388 79.9267C421.489 82.1632 423.005 84.0862 424.924 85.6558L429.99 79.4642ZM425.552 81.8366L435.632 77.5166L432.481 70.1634L422.401 74.4834L425.552 81.8366ZM431.097 76.5307C431.462 76.932 431.918 77.3842 432.43 77.8681L437.923 72.0519C437.475 71.6291 437.185 71.3346 437.016 71.1493L431.097 76.5307ZM432.519 77.9496C433.334 78.6744 434.265 79.2538 435.241 79.724L438.712 72.516C438.248 72.2928 437.979 72.0989 437.834 71.9704L432.519 77.9496ZM435.292 79.748C436.686 80.3954 438.183 80.64 439.657 80.64V72.64C439.05 72.64 438.76 72.538 438.661 72.492L435.292 79.748ZM439.657 80.64C440.608 80.64 441.548 80.5484 442.472 80.3559L440.841 72.5241C440.485 72.5982 440.092 72.64 439.657 72.64V80.64ZM442.59 80.3295C443.761 80.0485 444.968 79.5141 445.986 78.5642L440.527 72.7158C440.745 72.5125 440.885 72.5115 440.723 72.5505L442.59 80.3295ZM445.891 78.6503C447.34 77.3818 447.897 75.6767 447.897 74.08H439.897C439.897 73.9877 439.912 73.7543 440.036 73.4518C440.167 73.1334 440.374 72.8474 440.623 72.6297L445.891 78.6503ZM447.897 74.08C447.897 72.1681 447.084 70.2777 445.275 69.0718L440.838 75.7282C440.583 75.5586 440.303 75.278 440.109 74.8889C439.923 74.5163 439.897 74.2091 439.897 74.08H447.897ZM445.457 69.2C444.374 68.3877 443.151 67.9004 441.907 67.643L440.286 75.477C440.589 75.5396 440.673 75.6123 440.657 75.6L445.457 69.2ZM442.035 67.6717C441.178 67.4647 440.354 67.296 439.569 67.1702L438.305 75.0698C438.852 75.1574 439.469 75.282 440.158 75.4483L442.035 67.6717ZM439.558 67.1686C437.613 66.8626 435.738 66.251 433.92 65.3198L430.273 72.4402C432.828 73.749 435.513 74.6307 438.315 75.0714L439.558 67.1686ZM433.972 65.347C432.284 64.4506 430.967 63.3344 429.954 62.0102L423.599 66.8698C425.36 69.1723 427.59 71.0161 430.221 72.413L433.972 65.347ZM429.971 62.0326C429.142 60.9327 428.697 59.6447 428.697 58H420.697C420.697 61.262 421.638 64.2673 423.582 66.8474L429.971 62.0326ZM428.697 58C428.697 55.9754 429.204 54.4325 430.083 53.1884L423.55 48.5716C421.602 51.3275 420.697 54.5313 420.697 58H428.697ZM430.083 53.1884C431.088 51.7666 432.384 50.6785 434.04 49.8993L430.633 42.6607C427.756 44.0148 425.372 45.9934 423.55 48.5716L430.083 53.1884ZM434.058 49.8907C435.792 49.0638 437.668 48.64 439.737 48.64V40.64C436.525 40.64 433.467 41.3096 430.615 42.6693L434.058 49.8907ZM439.737 48.64C442.291 48.64 444.57 49.1596 446.631 50.1593L450.122 42.9607C446.903 41.4004 443.422 40.64 439.737 40.64V48.64ZM446.646 50.1661C448.705 51.1544 450.364 52.5525 451.677 54.3981L458.196 49.7619C456.096 46.8075 453.382 44.5256 450.107 42.9539L446.646 50.1661ZM452.896 48.6398L443.456 54.2398L447.537 61.1202L456.977 55.5202L452.896 48.6398ZM448.62 55.1812C448.1 54.5317 447.5 53.9431 446.857 53.4071L441.736 59.5529C442.053 59.8169 442.253 60.0283 442.373 60.1788L448.62 55.1812ZM447.038 53.5672C446.258 52.8328 445.374 52.2466 444.422 51.7915L440.971 59.0085C441.246 59.1401 441.429 59.2739 441.555 59.3928L447.038 53.5672ZM444.612 51.8884C443.554 51.3113 442.416 50.9626 441.235 50.8264L440.318 58.7736C440.524 58.7974 440.666 58.8487 440.781 58.9116L444.612 51.8884ZM441.118 50.8146C439.876 50.7081 438.629 50.7495 437.418 51.0088L439.095 58.8312C439.378 58.7705 439.81 58.7319 440.435 58.7854L441.118 50.8146ZM437.528 50.9869C436.124 51.2469 434.731 51.882 433.624 53.0585L439.449 58.5415C439.338 58.6599 439.215 58.7463 439.108 58.801C439.007 58.8529 438.954 58.8588 438.985 58.8531L437.528 50.9869ZM433.708 52.9716C432.288 54.3913 431.897 56.1941 431.897 57.68H439.897C439.897 57.6007 439.908 57.6888 439.843 57.8791C439.772 58.0883 439.625 58.368 439.365 58.6284L433.708 52.9716ZM431.897 57.68C431.897 58.7353 432.161 59.8678 432.848 60.8988C433.525 61.9142 434.441 62.5741 435.332 62.988L438.701 55.732C438.846 55.7992 439.201 56.0058 439.505 56.4612C439.819 56.9322 439.897 57.398 439.897 57.68H431.897ZM435.332 62.988C436.443 63.504 437.63 63.8515 438.861 64.0625L440.212 56.1775C439.577 56.0685 439.083 55.9093 438.701 55.732L435.332 62.988ZM438.861 64.0625C439.698 64.206 440.26 64.3422 440.604 64.4517L443.029 56.8283C442.2 56.5644 441.242 56.354 440.212 56.1775L438.861 64.0625ZM440.578 64.4435C442.599 65.1015 444.49 65.9549 446.259 67.0019L450.335 60.1181C448.049 58.765 445.621 57.6718 443.055 56.8365L440.578 64.4435ZM446.259 67.0019C447.867 67.9544 449.061 69.0478 449.929 70.2545L456.425 65.5855C454.839 63.3788 452.779 61.5656 450.335 60.1181L446.259 67.0019ZM449.953 70.2876C450.628 71.2072 450.99 72.3058 450.939 73.7806L458.934 74.0594C459.043 70.9475 458.232 68.0462 456.401 65.5524L449.953 70.2876ZM450.937 73.92C450.937 75.7191 450.42 77.1853 449.397 78.4814L455.676 83.4386C457.853 80.6814 458.937 77.4543 458.937 73.92H450.937ZM449.397 78.4814C448.249 79.9354 446.755 81.0645 444.817 81.8597L447.856 89.2603C450.985 87.9755 453.624 86.0379 455.676 83.4386L449.397 78.4814ZM444.817 81.8597C442.906 82.6444 440.878 82.9458 438.672 82.7377L437.921 90.7023C441.368 91.0275 444.7 90.5556 447.856 89.2603L444.817 81.8597Z" fill="#4D869C" mask="url(#path-1-outside-1_12_19)"/>
</svg>
