<svg width="188" height="56" viewBox="0 0 188 56" fill="none" xmlns="http://www.w3.org/2000/svg">
<mask id="path-1-outside-1_16_21" maskUnits="userSpaceOnUse" x="9" y="15" width="171" height="28" fill="black">
<rect fill="white" x="9" y="15" width="171" height="28"/>
<path d="M11.8 39V18H16.66L24.34 30.87V18H28.84V39H23.98L16.3 26.13V39H11.8ZM32.4543 27.75H42.0543V32.25H32.4543V27.75ZM63.2472 39.78L60.9972 37.56C60.2072 38.1 59.3372 38.52 58.3872 38.82C57.4472 39.12 56.4572 39.27 55.4172 39.27C53.9972 39.27 52.6622 38.99 51.4122 38.43C50.1622 37.86 49.0622 37.08 48.1122 36.09C47.1622 35.09 46.4172 33.935 45.8772 32.625C45.3372 31.305 45.0672 29.89 45.0672 28.38C45.0672 26.88 45.3372 25.475 45.8772 24.165C46.4172 22.845 47.1622 21.685 48.1122 20.685C49.0622 19.685 50.1622 18.905 51.4122 18.345C52.6622 17.775 53.9972 17.49 55.4172 17.49C56.8472 17.49 58.1872 17.775 59.4372 18.345C60.6872 18.905 61.7872 19.685 62.7372 20.685C63.6872 21.685 64.4272 22.845 64.9572 24.165C65.4972 25.475 65.7672 26.88 65.7672 28.38C65.7672 29.47 65.6172 30.515 65.3172 31.515C65.0272 32.505 64.6272 33.43 64.1172 34.29L66.4272 36.6L63.2472 39.78ZM55.4172 34.77C55.8272 34.77 56.2222 34.725 56.6022 34.635C56.9922 34.545 57.3672 34.42 57.7272 34.26L56.4672 33L59.6472 29.82L60.7572 30.93C60.9272 30.54 61.0522 30.13 61.1322 29.7C61.2222 29.27 61.2672 28.83 61.2672 28.38C61.2672 27.5 61.1122 26.675 60.8022 25.905C60.5022 25.135 60.0822 24.46 59.5422 23.88C59.0022 23.29 58.3772 22.83 57.6672 22.5C56.9672 22.16 56.2172 21.99 55.4172 21.99C54.6172 21.99 53.8622 22.16 53.1522 22.5C52.4522 22.83 51.8322 23.29 51.2922 23.88C50.7522 24.46 50.3272 25.135 50.0172 25.905C49.7172 26.675 49.5672 27.5 49.5672 28.38C49.5672 29.26 49.7172 30.09 50.0172 30.87C50.3272 31.64 50.7522 32.32 51.2922 32.91C51.8322 33.49 52.4522 33.945 53.1522 34.275C53.8622 34.605 54.6172 34.77 55.4172 34.77ZM68.2117 33.555V24H72.7117V32.295C72.7117 32.765 72.8267 33.195 73.0567 33.585C73.2867 33.965 73.5917 34.27 73.9717 34.5C74.3617 34.72 74.7867 34.83 75.2467 34.83C75.7167 34.83 76.1417 34.72 76.5217 34.5C76.9117 34.27 77.2167 33.965 77.4367 33.585C77.6667 33.195 77.7817 32.765 77.7817 32.295V24H82.2817L82.2967 39H77.7967L77.7817 38.025C77.2817 38.455 76.7117 38.79 76.0717 39.03C75.4317 39.27 74.7567 39.39 74.0467 39.39C72.9767 39.39 71.9967 39.13 71.1067 38.61C70.2267 38.08 69.5217 37.375 68.9917 36.495C68.4717 35.615 68.2117 34.635 68.2117 33.555ZM91.5836 39.39C90.2036 39.39 88.9436 39.035 87.8036 38.325C86.6736 37.615 85.7686 36.66 85.0886 35.46C84.4186 34.26 84.0836 32.935 84.0836 31.485C84.0836 30.395 84.2786 29.375 84.6686 28.425C85.0586 27.465 85.5936 26.625 86.2736 25.905C86.9636 25.175 87.7636 24.605 88.6736 24.195C89.5836 23.785 90.5536 23.58 91.5836 23.58C92.7836 23.58 93.8786 23.845 94.8686 24.375C95.8686 24.895 96.7086 25.605 97.3886 26.505C98.0786 27.395 98.5686 28.4 98.8586 29.52C99.1486 30.64 99.1786 31.795 98.9486 32.985H88.9436C89.0836 33.335 89.2686 33.655 89.4986 33.945C89.7386 34.225 90.0286 34.45 90.3686 34.62C90.7186 34.79 91.1236 34.88 91.5836 34.89C92.0236 34.9 92.4286 34.805 92.7986 34.605C93.1786 34.405 93.5086 34.135 93.7886 33.795L98.3786 34.86C97.7686 36.19 96.8586 37.28 95.6486 38.13C94.4386 38.97 93.0836 39.39 91.5836 39.39ZM88.7786 29.685H94.4036C94.2636 29.255 94.0536 28.875 93.7736 28.545C93.4936 28.215 93.1636 27.955 92.7836 27.765C92.4136 27.575 92.0136 27.48 91.5836 27.48C91.1636 27.48 90.7636 27.575 90.3836 27.765C90.0136 27.955 89.6886 28.215 89.4086 28.545C89.1386 28.875 88.9286 29.255 88.7786 29.685ZM105.768 39.27C105.008 39.2 104.278 39.035 103.578 38.775C102.878 38.515 102.253 38.16 101.703 37.71C101.153 37.26 100.718 36.71 100.398 36.06L104.178 34.44C104.278 34.55 104.418 34.69 104.598 34.86C104.778 35.02 105.003 35.165 105.273 35.295C105.553 35.425 105.888 35.49 106.278 35.49C106.538 35.49 106.788 35.465 107.028 35.415C107.278 35.355 107.478 35.255 107.628 35.115C107.788 34.975 107.868 34.78 107.868 34.53C107.868 34.25 107.763 34.04 107.553 33.9C107.353 33.75 107.108 33.645 106.818 33.585C106.528 33.515 106.258 33.46 106.008 33.42C105.118 33.28 104.263 33 103.443 32.58C102.633 32.15 101.968 31.595 101.448 30.915C100.928 30.225 100.668 29.42 100.668 28.5C100.668 27.47 100.933 26.58 101.463 25.83C101.993 25.08 102.683 24.505 103.533 24.105C104.393 23.695 105.318 23.49 106.308 23.49C107.478 23.49 108.558 23.73 109.548 24.21C110.548 24.69 111.368 25.38 112.008 26.28L108.468 28.38C108.348 28.23 108.198 28.08 108.018 27.93C107.848 27.77 107.648 27.635 107.418 27.525C107.198 27.405 106.958 27.33 106.698 27.3C106.348 27.27 106.033 27.285 105.753 27.345C105.483 27.395 105.268 27.505 105.108 27.675C104.948 27.835 104.868 28.07 104.868 28.38C104.868 28.67 105.008 28.88 105.288 29.01C105.568 29.14 105.883 29.235 106.233 29.295C106.583 29.355 106.868 29.42 107.088 29.49C107.948 29.77 108.758 30.135 109.518 30.585C110.278 31.035 110.888 31.58 111.348 32.22C111.818 32.86 112.038 33.61 112.008 34.47C112.008 35.47 111.708 36.35 111.108 37.11C110.508 37.87 109.733 38.445 108.783 38.835C107.833 39.225 106.828 39.37 105.768 39.27ZM122.794 28.5H120.244V39H115.744V28.5H113.794V24H115.744V19.29H120.244V24H122.794V28.5ZM125.179 24H129.679V39H125.179V24ZM127.459 22.44C126.809 22.44 126.264 22.225 125.824 21.795C125.384 21.365 125.164 20.83 125.164 20.19C125.164 19.56 125.384 19.03 125.824 18.6C126.264 18.16 126.804 17.94 127.444 17.94C128.074 17.94 128.604 18.16 129.034 18.6C129.474 19.03 129.694 19.56 129.694 20.19C129.694 20.83 129.479 21.365 129.049 21.795C128.629 22.225 128.099 22.44 127.459 22.44ZM139.425 39.39C138.045 39.39 136.785 39.035 135.645 38.325C134.515 37.615 133.61 36.665 132.93 35.475C132.26 34.275 131.925 32.95 131.925 31.5C131.925 30.4 132.12 29.375 132.51 28.425C132.9 27.465 133.435 26.625 134.115 25.905C134.805 25.175 135.605 24.605 136.515 24.195C137.425 23.785 138.395 23.58 139.425 23.58C140.805 23.58 142.06 23.935 143.19 24.645C144.33 25.355 145.235 26.31 145.905 27.51C146.585 28.71 146.925 30.04 146.925 31.5C146.925 32.59 146.73 33.61 146.34 34.56C145.95 35.51 145.41 36.35 144.72 37.08C144.04 37.8 143.245 38.365 142.335 38.775C141.435 39.185 140.465 39.39 139.425 39.39ZM139.425 34.89C139.995 34.89 140.505 34.735 140.955 34.425C141.415 34.115 141.775 33.705 142.035 33.195C142.295 32.675 142.425 32.11 142.425 31.5C142.425 30.87 142.285 30.295 142.005 29.775C141.735 29.255 141.37 28.845 140.91 28.545C140.46 28.235 139.965 28.08 139.425 28.08C138.865 28.08 138.355 28.24 137.895 28.56C137.445 28.87 137.085 29.285 136.815 29.805C136.555 30.325 136.425 30.89 136.425 31.5C136.425 32.14 136.56 32.715 136.83 33.225C137.11 33.735 137.475 34.14 137.925 34.44C138.385 34.74 138.885 34.89 139.425 34.89ZM163.258 29.415V39H158.758V30.675C158.758 30.205 158.643 29.78 158.413 29.4C158.183 29.01 157.878 28.705 157.498 28.485C157.118 28.255 156.693 28.14 156.223 28.14C155.753 28.14 155.323 28.255 154.933 28.485C154.553 28.705 154.248 29.01 154.018 29.4C153.798 29.78 153.688 30.205 153.688 30.675V39H149.188L149.173 24H153.673L153.688 24.945C154.188 24.515 154.758 24.18 155.398 23.94C156.038 23.7 156.713 23.58 157.423 23.58C158.503 23.58 159.483 23.845 160.363 24.375C161.243 24.895 161.943 25.595 162.463 26.475C162.993 27.355 163.258 28.335 163.258 29.415ZM170.573 39.27C169.813 39.2 169.083 39.035 168.383 38.775C167.683 38.515 167.058 38.16 166.508 37.71C165.958 37.26 165.523 36.71 165.203 36.06L168.983 34.44C169.083 34.55 169.223 34.69 169.403 34.86C169.583 35.02 169.808 35.165 170.078 35.295C170.358 35.425 170.693 35.49 171.083 35.49C171.343 35.49 171.593 35.465 171.833 35.415C172.083 35.355 172.283 35.255 172.433 35.115C172.593 34.975 172.673 34.78 172.673 34.53C172.673 34.25 172.568 34.04 172.358 33.9C172.158 33.75 171.913 33.645 171.623 33.585C171.333 33.515 171.063 33.46 170.813 33.42C169.923 33.28 169.068 33 168.248 32.58C167.438 32.15 166.773 31.595 166.253 30.915C165.733 30.225 165.473 29.42 165.473 28.5C165.473 27.47 165.738 26.58 166.268 25.83C166.798 25.08 167.488 24.505 168.338 24.105C169.198 23.695 170.123 23.49 171.113 23.49C172.283 23.49 173.363 23.73 174.353 24.21C175.353 24.69 176.173 25.38 176.813 26.28L173.273 28.38C173.153 28.23 173.003 28.08 172.823 27.93C172.653 27.77 172.453 27.635 172.223 27.525C172.003 27.405 171.763 27.33 171.503 27.3C171.153 27.27 170.838 27.285 170.558 27.345C170.288 27.395 170.073 27.505 169.913 27.675C169.753 27.835 169.673 28.07 169.673 28.38C169.673 28.67 169.813 28.88 170.093 29.01C170.373 29.14 170.688 29.235 171.038 29.295C171.388 29.355 171.673 29.42 171.893 29.49C172.753 29.77 173.563 30.135 174.323 30.585C175.083 31.035 175.693 31.58 176.153 32.22C176.623 32.86 176.843 33.61 176.813 34.47C176.813 35.47 176.513 36.35 175.913 37.11C175.313 37.87 174.538 38.445 173.588 38.835C172.638 39.225 171.633 39.37 170.573 39.27Z"/>
</mask>
<path d="M11.8 39H9.8V41H11.8V39ZM11.8 18V16H9.8V18H11.8ZM16.66 18L18.3775 16.9751L17.7956 16H16.66V18ZM24.34 30.87L22.6225 31.8949L26.34 38.1245V30.87H24.34ZM24.34 18V16H22.34V18H24.34ZM28.84 18H30.84V16H28.84V18ZM28.84 39V41H30.84V39H28.84ZM23.98 39L22.2625 40.0249L22.8444 41H23.98V39ZM16.3 26.13L18.0175 25.1051L14.3 18.8755V26.13H16.3ZM16.3 39V41H18.3V39H16.3ZM13.8 39V18H9.8V39H13.8ZM11.8 20H16.66V16H11.8V20ZM14.9425 19.0249L22.6225 31.8949L26.0575 29.8451L18.3775 16.9751L14.9425 19.0249ZM26.34 30.87V18H22.34V30.87H26.34ZM24.34 20H28.84V16H24.34V20ZM26.84 18V39H30.84V18H26.84ZM28.84 37H23.98V41H28.84V37ZM25.6975 37.9751L18.0175 25.1051L14.5825 27.1549L22.2625 40.0249L25.6975 37.9751ZM14.3 26.13V39H18.3V26.13H14.3ZM16.3 37H11.8V41H16.3V37ZM32.4543 27.75V25.75H30.4543V27.75H32.4543ZM42.0543 27.75H44.0543V25.75H42.0543V27.75ZM42.0543 32.25V34.25H44.0543V32.25H42.0543ZM32.4543 32.25H30.4543V34.25H32.4543V32.25ZM32.4543 29.75H42.0543V25.75H32.4543V29.75ZM40.0543 27.75V32.25H44.0543V27.75H40.0543ZM42.0543 30.25H32.4543V34.25H42.0543V30.25ZM34.4543 32.25V27.75H30.4543V32.25H34.4543ZM63.2472 39.78L61.8425 41.2037L63.2566 42.599L64.6614 41.1942L63.2472 39.78ZM60.9972 37.56L62.4019 36.1363L61.2289 34.979L59.8686 35.9089L60.9972 37.56ZM58.3872 38.82L57.7849 36.9128L57.7791 36.9147L58.3872 38.82ZM51.4122 38.43L50.5824 40.2498L50.5945 40.2552L51.4122 38.43ZM48.1122 36.09L46.6622 37.4675L46.6691 37.4748L48.1122 36.09ZM45.8772 32.625L44.0261 33.3823L44.0281 33.3872L45.8772 32.625ZM45.8772 24.165L47.7263 24.9272L47.7283 24.9223L45.8772 24.165ZM48.1122 20.685L49.5622 22.0625V22.0625L48.1122 20.685ZM51.4122 18.345L52.2299 20.1702L52.242 20.1647L51.4122 18.345ZM59.4372 18.345L58.6074 20.1648L58.6195 20.1702L59.4372 18.345ZM62.7372 20.685L61.2872 22.0625V22.0625L62.7372 20.685ZM64.9572 24.165L63.1012 24.9102L63.1046 24.9187L63.1081 24.9272L64.9572 24.165ZM65.3172 31.515L63.4015 30.9403L63.3978 30.9528L65.3172 31.515ZM64.1172 34.29L62.3969 33.2698L61.6046 34.6059L62.703 35.7042L64.1172 34.29ZM66.4272 36.6L67.8414 38.0142L69.2556 36.6L67.8414 35.1858L66.4272 36.6ZM56.6022 34.635L56.1525 32.6862L56.1413 32.6888L56.6022 34.635ZM57.7272 34.26L58.5395 36.0876L61.2005 34.9049L59.1414 32.8458L57.7272 34.26ZM56.4672 33L55.053 31.5858L53.6388 33L55.053 34.4142L56.4672 33ZM59.6472 29.82L61.0614 28.4058L59.6472 26.9916L58.233 28.4058L59.6472 29.82ZM60.7572 30.93L59.343 32.3442L61.418 34.4192L62.5906 31.7292L60.7572 30.93ZM61.1322 29.7L59.1746 29.2903L59.17 29.3122L59.1659 29.3342L61.1322 29.7ZM60.8022 25.905L58.9386 26.6311L58.9427 26.6415L58.9469 26.6519L60.8022 25.905ZM59.5422 23.88L58.0668 25.2303L58.0726 25.2366L58.0784 25.2428L59.5422 23.88ZM57.6672 22.5L56.7934 24.299L56.8087 24.3065L56.8242 24.3137L57.6672 22.5ZM53.1522 22.5L54.005 24.3091L54.016 24.3038L53.1522 22.5ZM51.2922 23.88L52.756 25.2428L52.7618 25.2366L52.7675 25.2303L51.2922 23.88ZM50.0172 25.905L48.1619 25.1581L48.1577 25.1685L48.1536 25.1789L50.0172 25.905ZM50.0172 30.87L48.1505 31.588L48.1561 31.6025L48.1619 31.6169L50.0172 30.87ZM51.2922 32.91L49.8168 34.2603L49.8226 34.2666L49.8284 34.2728L51.2922 32.91ZM53.1522 34.275L52.2993 36.0841L52.3092 36.0887L53.1522 34.275ZM64.6519 38.3563L62.4019 36.1363L59.5925 38.9837L61.8425 41.2037L64.6519 38.3563ZM59.8686 35.9089C59.2471 36.3337 58.5556 36.6695 57.7849 36.9128L58.9895 40.7272C60.1188 40.3705 61.1673 39.8663 62.1258 39.2111L59.8686 35.9089ZM57.7791 36.9147C57.0461 37.1486 56.262 37.27 55.4172 37.27V41.27C56.6524 41.27 57.8483 41.0914 58.9953 40.7253L57.7791 36.9147ZM55.4172 37.27C54.2684 37.27 53.2132 37.0453 52.2299 36.6048L50.5945 40.2552C52.1112 40.9347 53.726 41.27 55.4172 41.27V37.27ZM52.242 36.6103C51.2218 36.145 50.3299 35.5125 49.5553 34.7052L46.6691 37.4748C47.7944 38.6475 49.1026 39.575 50.5824 40.2497L52.242 36.6103ZM49.5622 34.7125C48.7867 33.8961 48.1749 32.9512 47.7262 31.8628L44.0281 33.3872C44.6595 34.9188 45.5377 36.2839 46.6622 37.4675L49.5622 34.7125ZM47.7283 31.8677C47.2923 30.802 47.0672 29.6458 47.0672 28.38H43.0672C43.0672 30.1342 43.3821 31.808 44.0261 33.3823L47.7283 31.8677ZM47.0672 28.38C47.0672 27.1259 47.2917 25.9815 47.7262 24.9272L44.0281 23.4028C43.3827 24.9685 43.0672 26.6341 43.0672 28.38H47.0672ZM47.7283 24.9223C48.1775 23.8242 48.7891 22.8763 49.5622 22.0625L46.6622 19.3075C45.5353 20.4937 44.6569 21.8658 44.0261 23.4077L47.7283 24.9223ZM49.5622 22.0625C50.3339 21.2502 51.2195 20.6228 52.2299 20.1702L50.5945 16.5198C49.1049 17.1872 47.7905 18.1198 46.6622 19.3075L49.5622 22.0625ZM52.242 20.1647C53.2226 19.7176 54.2736 19.49 55.4172 19.49V15.49C53.7208 15.49 52.1017 15.8324 50.5824 16.5253L52.242 20.1647ZM55.4172 19.49C56.5729 19.49 57.6286 19.7184 58.6074 20.1647L60.267 16.5253C58.7458 15.8316 57.1215 15.49 55.4172 15.49V19.49ZM58.6195 20.1702C59.6299 20.6228 60.5155 21.2502 61.2872 22.0625L64.1872 19.3075C63.0589 18.1198 61.7445 17.1872 60.2549 16.5198L58.6195 20.1702ZM61.2872 22.0625C62.0577 22.8735 62.6624 23.8173 63.1012 24.9102L66.8132 23.4198C66.192 21.8727 65.3167 20.4965 64.1872 19.3075L61.2872 22.0625ZM63.1081 24.9272C63.5427 25.9815 63.7672 27.1259 63.7672 28.38H67.7672C67.7672 26.6341 67.4517 24.9685 66.8063 23.4028L63.1081 24.9272ZM63.7672 28.38C63.7672 29.284 63.6432 30.1348 63.4015 30.9403L67.2328 32.0897C67.5912 30.8952 67.7672 29.656 67.7672 28.38H63.7672ZM63.3978 30.9528C63.1533 31.7875 62.819 32.5581 62.3969 33.2698L65.8374 35.3102C66.4354 34.3019 66.9011 33.2225 67.2365 32.0772L63.3978 30.9528ZM62.703 35.7042L65.013 38.0142L67.8414 35.1858L65.5314 32.8758L62.703 35.7042ZM65.013 35.1858L61.833 38.3658L64.6614 41.1942L67.8414 38.0142L65.013 35.1858ZM55.4172 36.77C55.9747 36.77 56.5247 36.7087 57.0631 36.5812L56.1413 32.6888C55.9196 32.7413 55.6797 32.77 55.4172 32.77V36.77ZM57.0519 36.5838C57.5644 36.4655 58.0609 36.3003 58.5395 36.0876L56.9149 32.4324C56.6735 32.5397 56.42 32.6245 56.1525 32.6862L57.0519 36.5838ZM59.1414 32.8458L57.8814 31.5858L55.053 34.4142L56.313 35.6742L59.1414 32.8458ZM57.8814 34.4142L61.0614 31.2342L58.233 28.4058L55.053 31.5858L57.8814 34.4142ZM58.233 31.2342L59.343 32.3442L62.1714 29.5158L61.0614 28.4058L58.233 31.2342ZM62.5906 31.7292C62.8228 31.1964 62.9915 30.6406 63.0984 30.0658L59.1659 29.3342C59.1129 29.6194 59.0315 29.8836 58.9238 30.1308L62.5906 31.7292ZM63.0898 30.1097C63.2087 29.5417 63.2672 28.9643 63.2672 28.38H59.2672C59.2672 28.6957 59.2357 28.9983 59.1746 29.2903L63.0898 30.1097ZM63.2672 28.38C63.2672 27.2596 63.0687 26.1795 62.6575 25.1581L58.9469 26.6519C59.1557 27.1705 59.2672 27.7404 59.2672 28.38H63.2672ZM62.6657 25.1789C62.2779 24.1836 61.7256 23.2901 61.006 22.5172L58.0784 25.2428C58.4387 25.6299 58.7264 26.0864 58.9386 26.6311L62.6657 25.1789ZM61.0175 22.5297C60.3033 21.7493 59.4647 21.13 58.5102 20.6863L56.8242 24.3137C57.2897 24.53 57.7011 24.8307 58.0668 25.2303L61.0175 22.5297ZM58.541 20.701C57.5609 20.2249 56.5112 19.99 55.4172 19.99V23.99C55.9232 23.99 56.3734 24.095 56.7934 24.299L58.541 20.701ZM55.4172 19.99C54.3232 19.99 53.2725 20.2249 52.2884 20.6962L54.016 24.3038C54.4518 24.0951 54.9111 23.99 55.4172 23.99V19.99ZM52.2994 20.6909C51.3561 21.1356 50.5265 21.7543 49.8168 22.5297L52.7675 25.2303C53.1379 24.8257 53.5483 24.5244 54.005 24.3091L52.2994 20.6909ZM49.8284 22.5172C49.1134 23.2852 48.5591 24.1714 48.1619 25.1581L51.8725 26.6519C52.0953 26.0986 52.391 25.6348 52.756 25.2428L49.8284 22.5172ZM48.1536 25.1789C47.7577 26.1951 47.5672 27.2679 47.5672 28.38H51.5672C51.5672 27.7321 51.6766 27.1549 51.8807 26.6311L48.1536 25.1789ZM47.5672 28.38C47.5672 29.4923 47.7578 30.5669 48.1505 31.588L51.8839 30.152C51.6766 29.6131 51.5672 29.0277 51.5672 28.38H47.5672ZM48.1619 31.6169C48.5579 32.6007 49.109 33.4869 49.8168 34.2603L52.7675 31.5597C52.3954 31.1531 52.0964 30.6793 51.8725 30.1231L48.1619 31.6169ZM49.8284 34.2728C50.5376 35.0345 51.3636 35.6429 52.2994 36.0841L54.005 32.4659C53.5408 32.2471 53.1268 31.9455 52.756 31.5472L49.8284 34.2728ZM52.3092 36.0887C53.2892 36.5441 54.3325 36.77 55.4172 36.77V32.77C54.9019 32.77 54.4352 32.6659 53.9952 32.4613L52.3092 36.0887ZM68.2117 24V22H66.2117V24H68.2117ZM72.7117 24H74.7117V22H72.7117V24ZM73.0567 33.585L71.334 34.601L71.3398 34.6108L71.3457 34.6206L73.0567 33.585ZM73.9717 34.5L72.9361 36.211L72.9624 36.2269L72.9891 36.242L73.9717 34.5ZM76.5217 34.5L77.5238 36.2309L77.5308 36.2268L77.5377 36.2227L76.5217 34.5ZM77.4367 33.585L75.714 32.569L75.7099 32.576L75.7059 32.5829L77.4367 33.585ZM77.7817 24V22H75.7817V24H77.7817ZM82.2817 24L84.2817 23.998L84.2797 22H82.2817V24ZM82.2967 39V41H84.2987L84.2967 38.998L82.2967 39ZM77.7967 39L75.797 39.0308L75.8273 41H77.7967V39ZM77.7817 38.025L79.7815 37.9942L79.7158 33.7238L76.4776 36.5086L77.7817 38.025ZM76.0717 39.03L76.774 40.9027L76.0717 39.03ZM71.1067 38.61L70.0749 40.3233L70.0863 40.3301L70.0978 40.3369L71.1067 38.61ZM68.9917 36.495L67.2699 37.5125L67.2741 37.5197L67.2785 37.5269L68.9917 36.495ZM70.2117 33.555V24H66.2117V33.555H70.2117ZM68.2117 26H72.7117V22H68.2117V26ZM70.7117 24V32.295H74.7117V24H70.7117ZM70.7117 32.295C70.7117 33.1081 70.9154 33.8911 71.334 34.601L74.7794 32.569C74.7381 32.4989 74.7117 32.4219 74.7117 32.295H70.7117ZM71.3457 34.6206C71.743 35.277 72.2797 35.8137 72.9361 36.211L75.0073 32.789C74.9037 32.7263 74.8304 32.653 74.7677 32.5494L71.3457 34.6206ZM72.9891 36.242C73.6874 36.6359 74.4522 36.83 75.2467 36.83V32.83C75.1212 32.83 75.036 32.8041 74.9544 32.758L72.9891 36.242ZM75.2467 36.83C76.043 36.83 76.8178 36.6396 77.5238 36.2309L75.5196 32.7691C75.4656 32.8004 75.3905 32.83 75.2467 32.83V36.83ZM77.5377 36.2227C78.2144 35.8237 78.7697 35.2743 79.1676 34.5871L75.7059 32.5829C75.6637 32.6557 75.6091 32.7163 75.5058 32.7773L77.5377 36.2227ZM79.1595 34.601C79.5781 33.8911 79.7817 33.1081 79.7817 32.295H75.7817C75.7817 32.4219 75.7554 32.4989 75.714 32.569L79.1595 34.601ZM79.7817 32.295V24H75.7817V32.295H79.7817ZM77.7817 26H82.2817V22H77.7817V26ZM80.2817 24.002L80.2967 39.002L84.2967 38.998L84.2817 23.998L80.2817 24.002ZM82.2967 37H77.7967V41H82.2967V37ZM79.7965 38.9692L79.7815 37.9942L75.782 38.0558L75.797 39.0308L79.7965 38.9692ZM76.4776 36.5086C76.1622 36.7799 75.7976 36.9968 75.3695 37.1573L76.774 40.9027C77.6258 40.5832 78.4012 40.1301 79.0858 39.5414L76.4776 36.5086ZM75.3695 37.1573C74.9627 37.3099 74.5263 37.39 74.0467 37.39V41.39C74.9871 41.39 75.9007 41.2301 76.774 40.9027L75.3695 37.1573ZM74.0467 37.39C73.3172 37.39 72.6876 37.2173 72.1157 36.8831L70.0978 40.3369C71.3059 41.0427 72.6362 41.39 74.0467 41.39V37.39ZM72.1386 36.8967C71.5379 36.5349 71.0668 36.0639 70.705 35.4631L67.2785 37.5269C67.9767 38.6861 68.9156 39.6251 70.0749 40.3233L72.1386 36.8967ZM70.7136 35.4775C70.3861 34.9234 70.2117 34.2981 70.2117 33.555H66.2117C66.2117 34.9718 66.5573 36.3066 67.2699 37.5125L70.7136 35.4775ZM87.8036 38.325L86.7395 40.0185L86.7463 40.0227L87.8036 38.325ZM85.0886 35.46L83.3423 36.435L83.3485 36.446L85.0886 35.46ZM84.6686 28.425L86.5188 29.1845L86.5215 29.1778L84.6686 28.425ZM86.2736 25.905L84.8201 24.5312L84.8196 24.5318L86.2736 25.905ZM88.6736 24.195L87.852 22.3715H87.852L88.6736 24.195ZM94.8686 24.375L93.9246 26.1382L93.9352 26.1439L93.9459 26.1494L94.8686 24.375ZM97.3886 26.505L95.7929 27.7107L95.8004 27.7206L95.808 27.7304L97.3886 26.505ZM98.8586 29.52L100.795 29.0187V29.0187L98.8586 29.52ZM98.9486 32.985V34.985H100.599L100.912 33.3645L98.9486 32.985ZM88.9436 32.985V30.985H85.9895L87.0866 33.7278L88.9436 32.985ZM89.4986 33.945L87.9316 35.1878L87.9553 35.2176L87.9801 35.2466L89.4986 33.945ZM90.3686 34.62L89.4742 36.4089L89.4844 36.414L89.4948 36.419L90.3686 34.62ZM91.5836 34.89L91.629 32.8905L91.6271 32.8905L91.5836 34.89ZM92.7986 34.605L91.8671 32.8352L91.8573 32.8403L91.8476 32.8456L92.7986 34.605ZM93.7886 33.795L94.2406 31.8468L93.0329 31.5665L92.2447 32.5236L93.7886 33.795ZM98.3786 34.86L100.197 35.6938L101.218 33.4658L98.8306 32.9118L98.3786 34.86ZM95.6486 38.13L96.7891 39.7729L96.7982 39.7666L95.6486 38.13ZM88.7786 29.685L86.8902 29.0263L85.9627 31.685H88.7786V29.685ZM94.4036 29.685V31.685H97.1581L96.3053 29.0658L94.4036 29.685ZM92.7836 27.765L91.87 29.5441L91.8795 29.549L91.8892 29.5539L92.7836 27.765ZM90.3836 27.765L89.4892 25.9761L89.4796 25.981L89.47 25.9859L90.3836 27.765ZM89.4086 28.545L87.8836 27.251L87.872 27.2647L87.8607 27.2785L89.4086 28.545ZM91.5836 37.39C90.5665 37.39 89.6746 37.1341 88.8609 36.6273L86.7463 40.0227C88.2126 40.9359 89.8407 41.39 91.5836 41.39V37.39ZM88.8676 36.6315C88.0277 36.1038 87.351 35.3959 86.8286 34.474L83.3485 36.446C84.1861 37.9241 85.3195 39.1262 86.7396 40.0185L88.8676 36.6315ZM86.8348 34.485C86.3405 33.5996 86.0836 32.6131 86.0836 31.485H82.0836C82.0836 33.2569 82.4967 34.9204 83.3423 36.435L86.8348 34.485ZM86.0836 31.485C86.0836 30.6393 86.2337 29.879 86.5188 29.1845L82.8184 27.6655C82.3235 28.871 82.0836 30.1507 82.0836 31.485H86.0836ZM86.5215 29.1778C86.8226 28.4367 87.2257 27.8097 87.7276 27.2782L84.8196 24.5318C83.9615 25.4403 83.2946 26.4933 82.8157 27.6722L86.5215 29.1778ZM87.7271 27.2788C88.239 26.7373 88.8247 26.3206 89.4952 26.0185L87.852 22.3715C86.7025 22.8894 85.6882 23.6127 84.8201 24.5312L87.7271 27.2788ZM89.4952 26.0185C90.1386 25.7286 90.8276 25.58 91.5836 25.58V21.58C90.2796 21.58 89.0286 21.8414 87.852 22.3715L89.4952 26.0185ZM91.5836 25.58C92.4775 25.58 93.2448 25.7743 93.9246 26.1382L95.8125 22.6118C94.5124 21.9157 93.0897 21.58 91.5836 21.58V25.58ZM93.9459 26.1494C94.6818 26.5321 95.292 27.0477 95.7929 27.7107L98.9843 25.2993C98.1252 24.1623 97.0554 23.2579 95.7913 22.6006L93.9459 26.1494ZM95.808 27.7304C96.3269 28.3998 96.6986 29.157 96.9224 30.0213L100.795 29.0187C100.439 27.643 99.8303 26.3902 98.9692 25.2796L95.808 27.7304ZM96.9224 30.0213C97.1343 30.8397 97.1613 31.6932 96.9849 32.6055L100.912 33.3645C101.196 31.8968 101.163 30.4403 100.795 29.0187L96.9224 30.0213ZM98.9486 30.985H88.9436V34.985H98.9486V30.985ZM87.0866 33.7278C87.2972 34.2543 87.579 34.7432 87.9316 35.1878L91.0656 32.7022C90.9582 32.5668 90.87 32.4157 90.8005 32.2422L87.0866 33.7278ZM87.9801 35.2466C88.3989 35.7352 88.9033 36.1234 89.4742 36.4089L91.263 32.8311C91.1539 32.7766 91.0783 32.7148 91.0171 32.6434L87.9801 35.2466ZM89.4948 36.419C90.1469 36.7358 90.8441 36.8744 91.5401 36.8895L91.6271 32.8905C91.4031 32.8856 91.2903 32.8442 91.2424 32.821L89.4948 36.419ZM91.5381 36.8895C92.3088 36.907 93.0595 36.7374 93.7496 36.3644L91.8476 32.8456C91.7977 32.8726 91.7384 32.893 91.629 32.8905L91.5381 36.8895ZM93.7301 36.3748C94.3514 36.0478 94.8879 35.6062 95.3325 35.0664L92.2447 32.5236C92.1293 32.6638 92.0058 32.7622 91.8671 32.8352L93.7301 36.3748ZM93.3365 35.7432L97.9266 36.8082L98.8306 32.9118L94.2406 31.8468L93.3365 35.7432ZM96.5607 34.0262C96.1 35.0306 95.4222 35.8448 94.4989 36.4934L96.7982 39.7666C98.2949 38.7152 99.4372 37.3494 100.197 35.6938L96.5607 34.0262ZM94.5081 36.4871C93.6395 37.0901 92.6839 37.39 91.5836 37.39V41.39C93.4833 41.39 95.2377 40.8499 96.7891 39.7729L94.5081 36.4871ZM88.7786 31.685H94.4036V27.685H88.7786V31.685ZM96.3053 29.0658C96.0885 28.3998 95.7544 27.7882 95.2986 27.251L92.2486 29.839C92.3528 29.9618 92.4387 30.1102 92.5019 30.3042L96.3053 29.0658ZM95.2986 27.251C94.8473 26.7192 94.304 26.2892 93.678 25.9761L91.8892 29.5539C92.0231 29.6208 92.1399 29.7108 92.2486 29.839L95.2986 27.251ZM93.6972 25.9859C93.0348 25.6457 92.3202 25.48 91.5836 25.48V29.48C91.707 29.48 91.7924 29.5043 91.87 29.5441L93.6972 25.9859ZM91.5836 25.48C90.8494 25.48 90.1435 25.649 89.4892 25.9761L91.278 29.5539C91.3836 29.501 91.4778 29.48 91.5836 29.48V25.48ZM89.47 25.9859C88.8568 26.3007 88.3265 26.729 87.8836 27.251L90.9336 29.839C91.0507 29.701 91.1703 29.6093 91.2972 29.5441L89.47 25.9859ZM87.8607 27.2785C87.4327 27.8016 87.112 28.3905 86.8902 29.0263L90.667 30.3437C90.7452 30.1195 90.8445 29.9484 90.9565 29.8115L87.8607 27.2785ZM105.768 39.27L105.956 37.2788L105.952 37.2784L105.768 39.27ZM103.578 38.775L104.275 36.9002L103.578 38.775ZM101.703 37.71L102.97 36.1621L101.703 37.71ZM100.398 36.06L99.6106 34.2217L97.673 35.0521L98.6041 36.9434L100.398 36.06ZM104.178 34.44L105.658 33.0947L104.7 32.0405L103.391 32.6017L104.178 34.44ZM104.598 34.86L103.225 36.314L103.247 36.3348L103.27 36.3548L104.598 34.86ZM105.273 35.295L104.406 37.097L104.418 37.1031L104.431 37.109L105.273 35.295ZM107.028 35.415L107.436 37.373L107.466 37.3668L107.495 37.3598L107.028 35.415ZM107.628 35.115L106.311 33.6098L106.287 33.631L106.264 33.6529L107.628 35.115ZM107.553 33.9L106.353 35.5L106.398 35.5333L106.444 35.5641L107.553 33.9ZM106.818 33.585L106.349 35.5292L106.381 35.5369L106.413 35.5435L106.818 33.585ZM106.008 33.42L106.324 31.4451L106.319 31.4443L106.008 33.42ZM103.443 32.58L102.506 34.3465L102.519 34.3534L102.532 34.3601L103.443 32.58ZM101.448 30.915L99.8512 32.1187L99.8597 32.1299L101.448 30.915ZM101.463 25.83L103.097 26.9842L101.463 25.83ZM103.533 24.105L104.385 25.9147L104.394 25.9103L103.533 24.105ZM109.548 24.21L108.676 26.0096L108.683 26.013L109.548 24.21ZM112.008 26.28L113.029 28.0001L114.897 26.8916L113.638 25.121L112.008 26.28ZM108.468 28.38L106.907 29.6294L107.993 30.9874L109.489 30.1001L108.468 28.38ZM108.018 27.93L106.648 29.3864L106.692 29.4278L106.738 29.4664L108.018 27.93ZM107.418 27.525L106.461 29.2808L106.507 29.3063L106.556 29.3293L107.418 27.525ZM106.698 27.3L106.928 25.3132L106.899 25.3098L106.869 25.3073L106.698 27.3ZM105.753 27.345L106.118 29.3116L106.145 29.3065L106.173 29.3006L105.753 27.345ZM105.108 27.675L106.523 29.0892L106.544 29.0678L106.565 29.0457L105.108 27.675ZM105.288 29.01L104.446 30.824L104.446 30.824L105.288 29.01ZM106.233 29.295L105.896 31.2662V31.2662L106.233 29.295ZM107.088 29.49L107.708 27.5882L107.695 27.5841L107.088 29.49ZM109.518 30.585L110.537 28.864L109.518 30.585ZM111.348 32.22L109.724 33.3873L109.73 33.3956L109.736 33.4038L111.348 32.22ZM112.008 34.47L110.01 34.4003L110.008 34.4351V34.47H112.008ZM111.108 37.11L112.678 38.3493L111.108 37.11ZM108.783 38.835L108.024 36.9848L108.783 38.835ZM105.952 37.2784C105.363 37.2242 104.806 37.0975 104.275 36.9002L102.882 40.6499C103.751 40.9725 104.654 41.1758 105.585 41.2616L105.952 37.2784ZM104.275 36.9002C103.771 36.713 103.341 36.4654 102.97 36.1621L100.437 39.2579C101.166 39.8546 101.986 40.317 102.882 40.6499L104.275 36.9002ZM102.97 36.1621C102.646 35.8969 102.389 35.5751 102.193 35.1766L98.6041 36.9434C99.0479 37.8449 99.6611 38.6231 100.437 39.2579L102.97 36.1621ZM101.186 37.8983L104.966 36.2783L103.391 32.6017L99.6106 34.2217L101.186 37.8983ZM102.699 35.7853C102.848 35.9493 103.029 36.1288 103.225 36.314L105.972 33.406C105.808 33.2512 105.709 33.1507 105.658 33.0947L102.699 35.7853ZM103.27 36.3548C103.617 36.6639 104.008 36.9052 104.406 37.097L106.141 33.493C105.999 33.4248 105.939 33.3761 105.927 33.3652L103.27 36.3548ZM104.431 37.109C105.035 37.3893 105.672 37.49 106.278 37.49V33.49C106.105 33.49 106.072 33.4607 106.116 33.481L104.431 37.109ZM106.278 37.49C106.667 37.49 107.054 37.4525 107.436 37.373L106.621 33.457C106.523 33.4775 106.41 33.49 106.278 33.49V37.49ZM107.495 37.3598C107.997 37.2393 108.534 37.0054 108.993 36.5771L106.264 33.6529C106.423 33.5046 106.56 33.4707 106.562 33.4702L107.495 37.3598ZM108.945 36.6202C109.617 36.0325 109.868 35.245 109.868 34.53H105.868C105.868 34.4422 105.883 34.2884 105.958 34.1046C106.037 33.9129 106.16 33.742 106.311 33.6098L108.945 36.6202ZM109.868 34.53C109.868 33.6674 109.497 32.7922 108.663 32.2359L106.444 35.5641C106.282 35.456 106.116 35.2865 106.001 35.0569C105.89 34.8356 105.868 34.6412 105.868 34.53H109.868ZM108.753 32.3C108.279 31.9439 107.749 31.7352 107.224 31.6265L106.413 35.5435C106.441 35.5493 106.445 35.5528 106.432 35.547C106.418 35.5409 106.389 35.5266 106.353 35.5L108.753 32.3ZM107.288 31.6408C106.956 31.5607 106.634 31.4946 106.324 31.4451L105.692 35.3949C105.883 35.4254 106.101 35.4693 106.349 35.5292L107.288 31.6408ZM106.319 31.4443C105.643 31.338 104.991 31.1255 104.355 30.7999L102.532 34.3601C103.536 34.8745 104.593 35.222 105.698 35.3957L106.319 31.4443ZM104.381 30.8135C103.807 30.5086 103.37 30.1355 103.037 29.7001L99.8597 32.1299C100.567 33.0545 101.46 33.7914 102.506 34.3465L104.381 30.8135ZM103.046 29.7113C102.805 29.3914 102.668 29.0157 102.668 28.5H98.6684C98.6684 29.8243 99.0523 31.0586 99.8512 32.1187L103.046 29.7113ZM102.668 28.5C102.668 27.831 102.834 27.3562 103.097 26.9842L99.8301 24.6758C99.033 25.8038 98.6684 27.109 98.6684 28.5H102.668ZM103.097 26.9842C103.423 26.5233 103.84 26.1709 104.385 25.9146L102.682 22.2954C101.526 22.8391 100.564 23.6367 99.8301 24.6758L103.097 26.9842ZM104.394 25.9103C104.975 25.6335 105.604 25.49 106.308 25.49V21.49C105.033 21.49 103.812 21.7565 102.673 22.2997L104.394 25.9103ZM106.308 25.49C107.196 25.49 107.975 25.6698 108.676 26.0096L110.421 22.4104C109.142 21.7902 107.761 21.49 106.308 21.49V25.49ZM108.683 26.013C109.379 26.3472 109.936 26.8162 110.379 27.439L113.638 25.121C112.801 23.9438 111.718 23.0328 110.414 22.407L108.683 26.013ZM110.988 24.5599L107.448 26.6599L109.489 30.1001L113.029 28.0001L110.988 24.5599ZM110.03 27.1306C109.81 26.8558 109.56 26.6115 109.299 26.3936L106.738 29.4664C106.836 29.5485 106.887 29.6042 106.907 29.6294L110.03 27.1306ZM109.389 26.4736C109.056 26.1597 108.681 25.9116 108.281 25.7207L106.556 29.3293C106.616 29.3584 106.641 29.3803 106.648 29.3864L109.389 26.4736ZM108.376 25.7692C107.92 25.5207 107.432 25.3713 106.928 25.3132L106.469 29.2868C106.48 29.288 106.481 29.2891 106.477 29.2877C106.475 29.2871 106.472 29.2861 106.469 29.2848C106.466 29.2835 106.463 29.2821 106.461 29.2808L108.376 25.7692ZM106.869 25.3073C106.365 25.2641 105.846 25.2797 105.334 25.3894L106.173 29.3006C106.221 29.2903 106.332 29.2759 106.528 29.2927L106.869 25.3073ZM105.389 25.3784C104.777 25.4918 104.152 25.7726 103.652 26.3043L106.565 29.0457C106.482 29.1333 106.39 29.1998 106.301 29.2455C106.214 29.2898 106.147 29.3061 106.118 29.3116L105.389 25.3784ZM103.694 26.2608C103.038 26.9173 102.868 27.7404 102.868 28.38H106.868C106.868 28.3996 106.859 28.7527 106.523 29.0892L103.694 26.2608ZM102.868 28.38C102.868 28.8593 102.989 29.3839 103.309 29.8644C103.624 30.3371 104.047 30.6387 104.446 30.824L106.131 27.196C106.25 27.2513 106.462 27.3829 106.638 27.6456C106.818 27.9161 106.868 28.1907 106.868 28.38H102.868ZM104.446 30.824C104.909 31.0387 105.397 31.1807 105.896 31.2662L106.571 27.3238C106.37 27.2893 106.228 27.2413 106.131 27.196L104.446 30.824ZM105.896 31.2662C106.197 31.318 106.383 31.3644 106.482 31.3959L107.695 27.5841C107.354 27.4755 106.969 27.392 106.571 27.3238L105.896 31.2662ZM106.469 31.3917C107.193 31.6274 107.869 31.9325 108.499 32.306L110.537 28.864C109.648 28.3375 108.704 27.9126 107.708 27.5883L106.469 31.3917ZM108.499 32.306C109.05 32.6322 109.444 32.9973 109.724 33.3873L112.972 31.0527C112.333 30.1627 111.506 29.4378 110.537 28.864L108.499 32.306ZM109.736 33.4038C109.917 33.6502 110.025 33.9496 110.01 34.4003L114.007 34.5397C114.051 33.2704 113.719 32.0698 112.96 31.0362L109.736 33.4038ZM110.008 34.47C110.008 35.0362 109.85 35.476 109.539 35.8707L112.678 38.3493C113.567 37.224 114.008 35.9038 114.008 34.47H110.008ZM109.539 35.8707C109.165 36.3444 108.676 36.7172 108.024 36.9848L109.543 40.6852C110.791 40.1728 111.852 39.3956 112.678 38.3493L109.539 35.8707ZM108.024 36.9848C107.385 37.2472 106.706 37.3496 105.956 37.2788L105.581 41.2612C106.951 41.3904 108.282 41.2028 109.543 40.6852L108.024 36.9848ZM122.794 28.5V30.5H124.794V28.5H122.794ZM120.244 28.5V26.5H118.244V28.5H120.244ZM120.244 39V41H122.244V39H120.244ZM115.744 39H113.744V41H115.744V39ZM115.744 28.5H117.744V26.5H115.744V28.5ZM113.794 28.5H111.794V30.5H113.794V28.5ZM113.794 24V22H111.794V24H113.794ZM115.744 24V26H117.744V24H115.744ZM115.744 19.29V17.29H113.744V19.29H115.744ZM120.244 19.29H122.244V17.29H120.244V19.29ZM120.244 24H118.244V26H120.244V24ZM122.794 24H124.794V22H122.794V24ZM122.794 26.5H120.244V30.5H122.794V26.5ZM118.244 28.5V39H122.244V28.5H118.244ZM120.244 37H115.744V41H120.244V37ZM117.744 39V28.5H113.744V39H117.744ZM115.744 26.5H113.794V30.5H115.744V26.5ZM115.794 28.5V24H111.794V28.5H115.794ZM113.794 26H115.744V22H113.794V26ZM117.744 24V19.29H113.744V24H117.744ZM115.744 21.29H120.244V17.29H115.744V21.29ZM118.244 19.29V24H122.244V19.29H118.244ZM120.244 26H122.794V22H120.244V26ZM120.794 24V28.5H124.794V24H120.794ZM125.179 24V22H123.179V24H125.179ZM129.679 24H131.679V22H129.679V24ZM129.679 39V41H131.679V39H129.679ZM125.179 39H123.179V41H125.179V39ZM125.824 21.795L124.426 23.2254V23.2254L125.824 21.795ZM125.824 18.6L127.222 20.0304L127.23 20.0223L127.238 20.0142L125.824 18.6ZM129.034 18.6L127.604 19.9979L127.62 20.0143L127.636 20.0304L129.034 18.6ZM129.049 21.795L127.635 20.3808L127.626 20.3891L127.618 20.3975L129.049 21.795ZM125.179 26H129.679V22H125.179V26ZM127.679 24V39H131.679V24H127.679ZM129.679 37H125.179V41H129.679V37ZM127.179 39V24H123.179V39H127.179ZM127.459 20.44C127.358 20.44 127.311 20.424 127.297 20.4183C127.284 20.4134 127.261 20.403 127.222 20.3646L124.426 23.2254C125.262 24.0428 126.319 24.44 127.459 24.44V20.44ZM127.222 20.3646C127.201 20.3442 127.19 20.3304 127.186 20.3238C127.182 20.3174 127.18 20.3136 127.179 20.3106C127.178 20.3089 127.164 20.2769 127.164 20.19H123.164C123.164 21.3441 123.584 22.4024 124.426 23.2254L127.222 20.3646ZM127.164 20.19C127.164 20.1492 127.167 20.1232 127.17 20.1089C127.173 20.0951 127.175 20.0887 127.176 20.0868C127.177 20.0849 127.178 20.0812 127.183 20.0743C127.188 20.0671 127.199 20.0522 127.222 20.0304L124.426 17.1696C123.591 17.986 123.164 19.0361 123.164 20.19H127.164ZM127.238 20.0142C127.282 19.9699 127.307 19.96 127.313 19.9572C127.321 19.9539 127.357 19.94 127.444 19.94V15.94C126.29 15.94 125.237 16.3589 124.41 17.1858L127.238 20.0142ZM127.444 19.94C127.485 19.94 127.511 19.9435 127.525 19.9462C127.539 19.9488 127.545 19.9514 127.547 19.9522C127.549 19.953 127.553 19.9546 127.56 19.9593C127.567 19.9643 127.582 19.9755 127.604 19.9979L130.464 17.2021C129.648 16.3668 128.598 15.94 127.444 15.94V19.94ZM127.636 20.0304C127.658 20.0522 127.67 20.0671 127.675 20.0743C127.679 20.0812 127.681 20.0849 127.682 20.0868C127.683 20.0887 127.685 20.0951 127.688 20.1089C127.69 20.1232 127.694 20.1492 127.694 20.19H131.694C131.694 19.0361 131.267 17.986 130.432 17.1696L127.636 20.0304ZM127.694 20.19C127.694 20.2826 127.679 20.3198 127.677 20.3255C127.675 20.3291 127.67 20.3459 127.635 20.3808L130.463 23.2092C131.29 22.3828 131.694 21.3295 131.694 20.19H127.694ZM127.618 20.3975C127.602 20.4137 127.593 20.4206 127.59 20.4225C127.587 20.4243 127.586 20.4248 127.585 20.4254C127.583 20.4261 127.575 20.4293 127.557 20.4326C127.538 20.436 127.507 20.44 127.459 20.44V24.44C128.599 24.44 129.657 24.0347 130.48 23.1925L127.618 20.3975ZM135.645 38.325L134.581 40.0185L134.588 40.0227L135.645 38.325ZM132.93 35.475L131.184 36.45L131.189 36.4587L131.194 36.4673L132.93 35.475ZM132.51 28.425L134.361 29.1845L134.363 29.1778L132.51 28.425ZM134.115 25.905L132.662 24.5312L132.661 24.5318L134.115 25.905ZM136.515 24.195L135.694 22.3715H135.694L136.515 24.195ZM143.19 24.645L142.126 26.3385L142.133 26.3427L143.19 24.645ZM145.905 27.51L144.159 28.485L144.165 28.496L145.905 27.51ZM146.34 34.56L144.49 33.8005V33.8005L146.34 34.56ZM144.72 37.08L143.267 35.7062L143.266 35.7068L144.72 37.08ZM142.335 38.775L141.514 36.9515L141.506 36.955L142.335 38.775ZM140.955 34.425L139.838 32.7665L139.829 32.7722L139.821 32.778L140.955 34.425ZM142.035 33.195L143.817 34.1034L143.821 34.0964L143.824 34.0894L142.035 33.195ZM142.005 29.775L140.23 30.6966L140.237 30.71L140.244 30.7232L142.005 29.775ZM140.91 28.545L139.776 30.192L139.797 30.2064L139.818 30.2202L140.91 28.545ZM137.895 28.56L139.03 30.207L139.038 30.2018L137.895 28.56ZM136.815 29.805L135.04 28.8834L135.033 28.8969L135.027 28.9106L136.815 29.805ZM136.83 33.225L135.063 34.1608L135.07 34.1742L135.077 34.1875L136.83 33.225ZM137.925 34.44L136.816 36.1041L136.824 36.1097L136.833 36.1152L137.925 34.44ZM139.425 37.39C138.408 37.39 137.516 37.1341 136.703 36.6273L134.588 40.0227C136.054 40.9359 137.682 41.39 139.425 41.39V37.39ZM136.709 36.6315C135.866 36.1013 135.188 35.3953 134.667 34.4827L131.194 36.4673C132.032 37.9347 133.165 39.1287 134.581 40.0185L136.709 36.6315ZM134.677 34.5C134.182 33.6146 133.925 32.6281 133.925 31.5H129.925C129.925 33.2719 130.339 34.9354 131.184 36.45L134.677 34.5ZM133.925 31.5C133.925 30.6418 134.076 29.8768 134.361 29.1845L130.66 27.6655C130.164 28.8732 129.925 30.1582 129.925 31.5H133.925ZM134.363 29.1778C134.664 28.4367 135.068 27.8097 135.569 27.2782L132.661 24.5318C131.803 25.4403 131.136 26.4933 130.657 27.6722L134.363 29.1778ZM135.569 27.2788C136.081 26.7373 136.666 26.3206 137.337 26.0185L135.694 22.3715C134.544 22.8894 133.53 23.6127 132.662 24.5312L135.569 27.2788ZM137.337 26.0185C137.98 25.7286 138.669 25.58 139.425 25.58V21.58C138.121 21.58 136.87 21.8414 135.694 22.3715L137.337 26.0185ZM139.425 25.58C140.442 25.58 141.326 25.8358 142.126 26.3385L144.254 22.9515C142.794 22.0342 141.168 21.58 139.425 21.58V25.58ZM142.133 26.3427C142.979 26.8696 143.65 27.5731 144.159 28.485L147.652 26.535C146.821 25.0469 145.682 23.8404 144.248 22.9473L142.133 26.3427ZM144.165 28.496C144.665 29.3776 144.925 30.3647 144.925 31.5H148.925C148.925 29.7153 148.506 28.0424 147.645 26.524L144.165 28.496ZM144.925 31.5C144.925 32.3457 144.775 33.106 144.49 33.8005L148.191 35.3195C148.685 34.114 148.925 32.8343 148.925 31.5H144.925ZM144.49 33.8005C144.191 34.5282 143.784 35.1588 143.267 35.7062L146.174 38.4538C147.037 37.5412 147.709 36.4918 148.191 35.3195L144.49 33.8005ZM143.266 35.7068C142.767 36.2353 142.188 36.648 141.514 36.9515L143.157 40.5985C144.303 40.082 145.314 39.3647 146.174 38.4532L143.266 35.7068ZM141.506 36.955C140.88 37.2403 140.194 37.39 139.425 37.39V41.39C140.736 41.39 141.991 41.1297 143.165 40.595L141.506 36.955ZM139.425 36.89C140.382 36.89 141.291 36.6222 142.09 36.072L139.821 32.778C139.719 32.8478 139.609 32.89 139.425 32.89V36.89ZM142.073 36.0835C142.824 35.5777 143.408 34.9056 143.817 34.1034L140.254 32.2866C140.143 32.5044 140.007 32.6523 139.838 32.7665L142.073 36.0835ZM143.824 34.0894C144.23 33.278 144.425 32.4048 144.425 31.5H140.425C140.425 31.8152 140.361 32.072 140.247 32.3006L143.824 34.0894ZM144.425 31.5C144.425 30.5618 144.214 29.6576 143.766 28.8268L140.244 30.7232C140.357 30.9324 140.425 31.1782 140.425 31.5H144.425ZM143.78 28.8534C143.363 28.0487 142.771 27.3706 142.003 26.8698L139.818 30.2202C139.97 30.3194 140.108 30.4613 140.23 30.6966L143.78 28.8534ZM142.045 26.898C141.266 26.361 140.376 26.08 139.425 26.08V30.08C139.555 30.08 139.655 30.109 139.776 30.192L142.045 26.898ZM139.425 26.08C138.457 26.08 137.548 26.3652 136.753 26.9182L139.038 30.2018C139.163 30.1148 139.274 30.08 139.425 30.08V26.08ZM136.761 26.913C136.022 27.422 135.45 28.0944 135.04 28.8834L138.59 30.7266C138.721 30.4756 138.869 30.318 139.03 30.207L136.761 26.913ZM135.027 28.9106C134.621 29.722 134.425 30.5952 134.425 31.5H138.425C138.425 31.1848 138.49 30.928 138.604 30.6994L135.027 28.9106ZM134.425 31.5C134.425 32.43 134.624 33.3321 135.063 34.1608L138.598 32.2892C138.497 32.0979 138.425 31.85 138.425 31.5H134.425ZM135.077 34.1875C135.5 34.9579 136.078 35.6121 136.816 36.1041L139.035 32.7759C138.873 32.6679 138.721 32.5121 138.584 32.2625L135.077 34.1875ZM136.833 36.1152C137.612 36.6233 138.49 36.89 139.425 36.89V32.89C139.28 32.89 139.159 32.8567 139.018 32.7648L136.833 36.1152ZM163.258 39V41H165.258V39H163.258ZM158.758 39H156.758V41H158.758V39ZM158.413 29.4L156.69 30.416L156.696 30.4258L156.702 30.4356L158.413 29.4ZM157.498 28.485L156.462 30.196L156.479 30.2061L156.496 30.2159L157.498 28.485ZM154.933 28.485L155.935 30.2159L155.942 30.2118L155.949 30.2077L154.933 28.485ZM154.018 29.4L152.295 28.384L152.291 28.391L152.287 28.3979L154.018 29.4ZM153.688 39V41H155.688V39H153.688ZM149.188 39L147.188 39.002L147.19 41H149.188V39ZM149.173 24V22H147.171L147.173 24.002L149.173 24ZM153.673 24L155.673 23.9683L155.642 22H153.673V24ZM153.688 24.945L151.688 24.9767L151.756 29.2444L154.992 26.4614L153.688 24.945ZM155.398 23.94L154.696 22.0673V22.0673L155.398 23.94ZM160.363 24.375L159.331 26.0883L159.338 26.0926L159.346 26.0969L160.363 24.375ZM162.463 26.475L160.741 27.4925L160.745 27.4997L160.75 27.5069L162.463 26.475ZM161.258 29.415V39H165.258V29.415H161.258ZM163.258 37H158.758V41H163.258V37ZM160.758 39V30.675H156.758V39H160.758ZM160.758 30.675C160.758 29.862 160.554 29.0751 160.124 28.3644L156.702 30.4356C156.732 30.4849 156.758 30.548 156.758 30.675H160.758ZM160.136 28.384C159.737 27.7074 159.187 27.152 158.5 26.7541L156.496 30.2159C156.569 30.258 156.629 30.3126 156.69 30.416L160.136 28.384ZM158.534 26.774C157.823 26.3438 157.036 26.14 156.223 26.14V30.14C156.35 30.14 156.413 30.1662 156.462 30.196L158.534 26.774ZM156.223 26.14C155.41 26.14 154.627 26.3437 153.917 26.7623L155.949 30.2077C156.019 30.1663 156.096 30.14 156.223 30.14V26.14ZM153.931 26.7541C153.244 27.152 152.694 27.7074 152.295 28.384L155.741 30.416C155.802 30.3126 155.862 30.258 155.935 30.2159L153.931 26.7541ZM152.287 28.3979C151.878 29.1039 151.688 29.8788 151.688 30.675H155.688C155.688 30.5312 155.718 30.4561 155.749 30.4021L152.287 28.3979ZM151.688 30.675V39H155.688V30.675H151.688ZM153.688 37H149.188V41H153.688V37ZM151.188 38.998L151.173 23.998L147.173 24.002L147.188 39.002L151.188 38.998ZM149.173 26H153.673V22H149.173V26ZM151.673 24.0317L151.688 24.9767L155.688 24.9133L155.673 23.9683L151.673 24.0317ZM154.992 26.4614C155.308 26.1901 155.672 25.9732 156.1 25.8127L154.696 22.0673C153.844 22.3868 153.069 22.8399 152.384 23.4286L154.992 26.4614ZM156.1 25.8127C156.507 25.6601 156.943 25.58 157.423 25.58V21.58C156.483 21.58 155.569 21.7399 154.696 22.0673L156.1 25.8127ZM157.423 25.58C158.159 25.58 158.779 25.7557 159.331 26.0883L161.395 22.6617C160.187 21.9343 158.847 21.58 157.423 21.58V25.58ZM159.346 26.0969C159.935 26.4452 160.393 26.9029 160.741 27.4925L164.185 25.4575C163.493 24.2871 162.551 23.3448 161.381 22.6531L159.346 26.0969ZM160.75 27.5069C161.082 28.0591 161.258 28.6791 161.258 29.415H165.258C165.258 27.9909 164.904 26.6509 164.176 25.4431L160.75 27.5069ZM170.573 39.27L170.761 37.2788L170.757 37.2784L170.573 39.27ZM168.383 38.775L169.079 36.9002L168.383 38.775ZM166.508 37.71L167.775 36.1621L166.508 37.71ZM165.203 36.06L164.415 34.2217L162.478 35.0521L163.409 36.9434L165.203 36.06ZM168.983 34.44L170.463 33.0947L169.505 32.0405L168.195 32.6017L168.983 34.44ZM169.403 34.86L168.03 36.314L168.052 36.3348L168.074 36.3548L169.403 34.86ZM170.078 35.295L169.21 37.097L169.223 37.1031L169.236 37.109L170.078 35.295ZM171.833 35.415L172.241 37.373L172.271 37.3668L172.3 37.3598L171.833 35.415ZM172.433 35.115L171.116 33.6098L171.092 33.631L171.068 33.6529L172.433 35.115ZM172.358 33.9L171.158 35.5L171.203 35.5333L171.249 35.5641L172.358 33.9ZM171.623 33.585L171.154 35.5292L171.186 35.5369L171.218 35.5435L171.623 33.585ZM170.813 33.42L171.129 31.4451L171.124 31.4443L170.813 33.42ZM168.248 32.58L167.31 34.3465L167.323 34.3534L167.336 34.3601L168.248 32.58ZM166.253 30.915L164.656 32.1187L164.664 32.1299L166.253 30.915ZM166.268 25.83L167.901 26.9842L166.268 25.83ZM168.338 24.105L169.19 25.9147L169.199 25.9103L168.338 24.105ZM174.353 24.21L173.481 26.0096L173.488 26.013L174.353 24.21ZM176.813 26.28L177.834 28.0001L179.702 26.8916L178.443 25.121L176.813 26.28ZM173.273 28.38L171.711 29.6294L172.798 30.9874L174.294 30.1001L173.273 28.38ZM172.823 27.93L171.452 29.3864L171.496 29.4278L171.543 29.4664L172.823 27.93ZM172.223 27.525L171.265 29.2808L171.312 29.3063L171.36 29.3293L172.223 27.525ZM171.503 27.3L171.732 25.3132L171.703 25.3098L171.674 25.3073L171.503 27.3ZM170.558 27.345L170.922 29.3116L170.95 29.3065L170.977 29.3006L170.558 27.345ZM169.913 27.675L171.327 29.0892L171.349 29.0678L171.37 29.0457L169.913 27.675ZM170.093 29.01L169.251 30.824V30.824L170.093 29.01ZM171.038 29.295L170.7 31.2662V31.2662L171.038 29.295ZM171.893 29.49L172.512 27.5882L172.5 27.5841L171.893 29.49ZM174.323 30.585L175.342 28.864H175.342L174.323 30.585ZM176.153 32.22L174.529 33.3873L174.535 33.3956L174.541 33.4038L176.153 32.22ZM176.813 34.47L174.814 34.4003L174.813 34.4351V34.47H176.813ZM175.913 37.11L177.483 38.3493L175.913 37.11ZM173.588 38.835L172.829 36.9848L173.588 38.835ZM170.757 37.2784C170.168 37.2242 169.611 37.0975 169.079 36.9002L167.687 40.6499C168.555 40.9725 169.458 41.1758 170.39 41.2616L170.757 37.2784ZM169.079 36.9002C168.576 36.713 168.145 36.4654 167.775 36.1621L165.242 39.2579C165.971 39.8546 166.791 40.317 167.687 40.6499L169.079 36.9002ZM167.775 36.1621C167.45 35.8969 167.194 35.5751 166.997 35.1766L163.409 36.9434C163.853 37.8449 164.466 38.6231 165.242 39.2579L167.775 36.1621ZM165.991 37.8983L169.771 36.2783L168.195 32.6017L164.415 34.2217L165.991 37.8983ZM167.503 35.7853C167.652 35.9493 167.834 36.1288 168.03 36.314L170.776 33.406C170.613 33.2512 170.514 33.1507 170.463 33.0947L167.503 35.7853ZM168.074 36.3548C168.422 36.6639 168.812 36.9052 169.21 37.097L170.946 33.493C170.804 33.4248 170.744 33.3761 170.732 33.3652L168.074 36.3548ZM169.236 37.109C169.84 37.3893 170.476 37.49 171.083 37.49V33.49C170.91 33.49 170.877 33.4607 170.92 33.481L169.236 37.109ZM171.083 37.49C171.472 37.49 171.859 37.4525 172.241 37.373L171.425 33.457C171.327 33.4775 171.214 33.49 171.083 33.49V37.49ZM172.3 37.3598C172.802 37.2393 173.339 37.0054 173.798 36.5771L171.068 33.6529C171.227 33.5046 171.364 33.4707 171.366 33.4702L172.3 37.3598ZM173.75 36.6202C174.422 36.0325 174.673 35.245 174.673 34.53H170.673C170.673 34.4422 170.687 34.2884 170.763 34.1046C170.841 33.9129 170.965 33.742 171.116 33.6098L173.75 36.6202ZM174.673 34.53C174.673 33.6674 174.302 32.7922 173.468 32.2359L171.249 35.5641C171.087 35.456 170.92 35.2865 170.806 35.0569C170.695 34.8356 170.673 34.6412 170.673 34.53H174.673ZM173.558 32.3C173.083 31.9439 172.554 31.7352 172.028 31.6265L171.218 35.5435C171.246 35.5493 171.25 35.5528 171.237 35.547C171.222 35.5409 171.194 35.5266 171.158 35.5L173.558 32.3ZM172.092 31.6408C171.76 31.5607 171.439 31.4946 171.129 31.4451L170.497 35.3949C170.688 35.4254 170.906 35.4693 171.154 35.5292L172.092 31.6408ZM171.124 31.4443C170.448 31.338 169.796 31.1255 169.16 30.7999L167.336 34.3601C168.341 34.8745 169.398 35.222 170.502 35.3957L171.124 31.4443ZM169.186 30.8135C168.612 30.5086 168.175 30.1355 167.842 29.7001L164.664 32.1299C165.371 33.0545 166.265 33.7914 167.31 34.3465L169.186 30.8135ZM167.85 29.7113C167.609 29.3914 167.473 29.0157 167.473 28.5H163.473C163.473 29.8243 163.857 31.0586 164.656 32.1187L167.85 29.7113ZM167.473 28.5C167.473 27.831 167.639 27.3562 167.901 26.9842L164.635 24.6758C163.838 25.8038 163.473 27.109 163.473 28.5H167.473ZM167.901 26.9842C168.227 26.5233 168.645 26.1709 169.19 25.9146L167.487 22.2954C166.331 22.8391 165.369 23.6367 164.635 24.6758L167.901 26.9842ZM169.199 25.9103C169.779 25.6335 170.409 25.49 171.113 25.49V21.49C169.837 21.49 168.617 21.7565 167.477 22.2997L169.199 25.9103ZM171.113 25.49C172 25.49 172.78 25.6698 173.481 26.0096L175.226 22.4104C173.947 21.7902 172.566 21.49 171.113 21.49V25.49ZM173.488 26.013C174.184 26.3472 174.74 26.8162 175.183 27.439L178.443 25.121C177.606 23.9438 176.522 23.0328 175.219 22.407L173.488 26.013ZM175.793 24.5599L172.253 26.6599L174.294 30.1001L177.834 28.0001L175.793 24.5599ZM174.835 27.1306C174.615 26.8558 174.365 26.6115 174.104 26.3936L171.543 29.4664C171.641 29.5485 171.691 29.6042 171.711 29.6294L174.835 27.1306ZM174.194 26.4736C173.86 26.1597 173.485 25.9116 173.086 25.7207L171.36 29.3293C171.421 29.3584 171.446 29.3803 171.452 29.3864L174.194 26.4736ZM173.181 25.7692C172.725 25.5207 172.236 25.3713 171.732 25.3132L171.274 29.2868C171.284 29.288 171.286 29.2891 171.282 29.2877C171.28 29.2871 171.277 29.2861 171.274 29.2848C171.271 29.2835 171.268 29.2821 171.265 29.2808L173.181 25.7692ZM171.674 25.3073C171.169 25.2641 170.651 25.2797 170.139 25.3894L170.977 29.3006C171.025 29.2903 171.137 29.2759 171.332 29.2927L171.674 25.3073ZM170.194 25.3784C169.582 25.4918 168.957 25.7726 168.457 26.3043L171.37 29.0457C171.287 29.1333 171.195 29.1998 171.105 29.2455C171.019 29.2898 170.952 29.3061 170.922 29.3116L170.194 25.3784ZM168.499 26.2608C167.842 26.9173 167.673 27.7404 167.673 28.38H171.673C171.673 28.3996 171.664 28.7527 171.327 29.0892L168.499 26.2608ZM167.673 28.38C167.673 28.8593 167.794 29.3839 168.114 29.8644C168.429 30.3371 168.852 30.6387 169.251 30.824L170.935 27.196C171.054 27.2513 171.267 27.3829 171.442 27.6456C171.623 27.9161 171.673 28.1907 171.673 28.38H167.673ZM169.251 30.824C169.713 31.0387 170.201 31.1807 170.7 31.2662L171.376 27.3238C171.175 27.2893 171.033 27.2413 170.935 27.196L169.251 30.824ZM170.7 31.2662C171.002 31.318 171.188 31.3644 171.287 31.3959L172.5 27.5841C172.158 27.4755 171.774 27.392 171.376 27.3238L170.7 31.2662ZM171.274 31.3917C171.998 31.6274 172.673 31.9325 173.304 32.306L175.342 28.864C174.453 28.3375 173.508 27.9126 172.512 27.5883L171.274 31.3917ZM173.304 32.306C173.855 32.6322 174.249 32.9973 174.529 33.3873L177.777 31.0527C177.137 30.1627 176.311 29.4378 175.342 28.864L173.304 32.306ZM174.541 33.4038C174.722 33.6502 174.83 33.9496 174.814 34.4003L178.812 34.5397C178.856 33.2704 178.524 32.0698 177.765 31.0362L174.541 33.4038ZM174.813 34.47C174.813 35.0362 174.655 35.476 174.343 35.8707L177.483 38.3493C178.371 37.224 178.813 35.9038 178.813 34.47H174.813ZM174.343 35.8707C173.969 36.3444 173.48 36.7172 172.829 36.9848L174.348 40.6852C175.596 40.1728 176.657 39.3956 177.483 38.3493L174.343 35.8707ZM172.829 36.9848C172.19 37.2472 171.511 37.3496 170.761 37.2788L170.385 41.2612C171.756 41.3904 173.087 41.2028 174.348 40.6852L172.829 36.9848Z" fill="#EEF7FF" mask="url(#path-1-outside-1_16_21)"/>
</svg>
